<svg xmlns="http://www.w3.org/2000/svg" viewBox="0 0 266.9 15.01"><defs><style>.cls-1{fill:none;stroke:#ed7923;stroke-miterlimit:300;stroke-width:0.33px;}.cls-2{font-size:11.1px;font-family:CenturySchoolbook, Century Schoolbook;}</style></defs><g id="Capa_2" data-name="Capa 2"><g id="Mesa_1" data-name="Mesa 1"><g id="Contenido_Bloque_2" data-name="Contenido Bloque 2"><g id="Título_Bloque_2" data-name="Título Bloque 2"><g id="lINEA_ARRIBA" data-name="lINEA ARRIBA"><polygon class="cls-1" points="0.24 2.23 2.36 0.23 4.47 2.23 2.36 4.23 0.24 2.23"/><polygon class="cls-1" points="4.84 2.23 6.96 0.23 9.07 2.23 6.96 4.23 4.84 2.23"/><polygon class="cls-1" points="9.44 2.23 11.56 0.23 13.67 2.23 11.56 4.23 9.44 2.23"/><polygon class="cls-1" points="14.04 2.23 16.16 0.23 18.27 2.23 16.16 4.23 14.04 2.23"/><polygon class="cls-1" points="18.64 2.23 20.76 0.23 22.87 2.23 20.76 4.23 18.64 2.23"/><polygon class="cls-1" points="23.24 2.23 25.36 0.23 27.47 2.23 25.36 4.23 23.24 2.23"/><polygon class="cls-1" points="27.84 2.23 29.95 0.23 32.07 2.23 29.95 4.23 27.84 2.23"/><polygon class="cls-1" points="32.44 2.23 34.55 0.23 36.67 2.23 34.55 4.23 32.44 2.23"/><polygon class="cls-1" points="37.04 2.23 39.15 0.23 41.27 2.23 39.15 4.23 37.04 2.23"/><polygon class="cls-1" points="41.64 2.23 43.75 0.23 45.87 2.23 43.75 4.23 41.64 2.23"/><polygon class="cls-1" points="46.24 2.23 48.35 0.23 50.47 2.23 48.35 4.23 46.24 2.23"/><polygon class="cls-1" points="50.84 2.23 52.95 0.23 55.07 2.23 52.95 4.23 50.84 2.23"/><polygon class="cls-1" points="55.44 2.23 57.55 0.23 59.67 2.23 57.55 4.23 55.44 2.23"/><polygon class="cls-1" points="60.04 2.23 62.15 0.23 64.27 2.23 62.15 4.23 60.04 2.23"/><polygon class="cls-1" points="64.64 2.23 66.75 0.23 68.87 2.23 66.75 4.23 64.64 2.23"/><polygon class="cls-1" points="69.24 2.23 71.35 0.23 73.47 2.23 71.35 4.23 69.24 2.23"/><polygon class="cls-1" points="73.84 2.23 75.95 0.23 78.07 2.23 75.95 4.23 73.84 2.23"/><polygon class="cls-1" points="78.44 2.23 80.55 0.23 82.67 2.23 80.55 4.23 78.44 2.23"/><polygon class="cls-1" points="83.04 2.23 85.15 0.23 87.27 2.23 85.15 4.23 83.04 2.23"/><polygon class="cls-1" points="87.64 2.23 89.75 0.23 91.87 2.23 89.75 4.23 87.64 2.23"/><polygon class="cls-1" points="92.24 2.23 94.35 0.23 96.47 2.23 94.35 4.23 92.24 2.23"/><polygon class="cls-1" points="96.84 2.23 98.95 0.23 101.07 2.23 98.95 4.23 96.84 2.23"/><polygon class="cls-1" points="101.44 2.23 103.55 0.23 105.67 2.23 103.55 4.23 101.44 2.23"/><polygon class="cls-1" points="106.03 2.23 108.15 0.23 110.27 2.23 108.15 4.23 106.03 2.23"/><polygon class="cls-1" points="110.64 2.23 112.75 0.23 114.86 2.23 112.75 4.23 110.64 2.23"/><polygon class="cls-1" points="115.23 2.23 117.35 0.23 119.47 2.23 117.35 4.23 115.23 2.23"/><polygon class="cls-1" points="119.83 2.23 121.95 0.23 124.06 2.23 121.95 4.23 119.83 2.23"/><polygon class="cls-1" points="124.43 2.23 126.55 0.23 128.66 2.23 126.55 4.23 124.43 2.23"/><polygon class="cls-1" points="129.03 2.23 131.15 0.23 133.26 2.23 131.15 4.23 129.03 2.23"/><polygon class="cls-1" points="133.63 2.23 135.75 0.23 137.86 2.23 135.75 4.23 133.63 2.23"/><polygon class="cls-1" points="138.23 2.23 140.35 0.23 142.46 2.23 140.35 4.23 138.23 2.23"/><polygon class="cls-1" points="142.83 2.23 144.95 0.23 147.06 2.23 144.95 4.23 142.83 2.23"/><polygon class="cls-1" points="147.43 2.23 149.55 0.23 151.66 2.23 149.55 4.23 147.43 2.23"/><polygon class="cls-1" points="152.03 2.23 154.15 0.23 156.26 2.23 154.15 4.23 152.03 2.23"/><polygon class="cls-1" points="156.63 2.23 158.75 0.23 160.86 2.23 158.75 4.23 156.63 2.23"/><polygon class="cls-1" points="161.23 2.23 163.35 0.23 165.46 2.23 163.35 4.23 161.23 2.23"/><polygon class="cls-1" points="165.83 2.23 167.94 0.23 170.06 2.23 167.94 4.23 165.83 2.23"/><polygon class="cls-1" points="170.43 2.23 172.54 0.23 174.66 2.23 172.54 4.23 170.43 2.23"/><polygon class="cls-1" points="175.03 2.23 177.15 0.23 179.26 2.23 177.15 4.23 175.03 2.23"/><polygon class="cls-1" points="179.63 2.23 181.74 0.23 183.86 2.23 181.74 4.23 179.63 2.23"/><polygon class="cls-1" points="184.23 2.23 186.34 0.23 188.46 2.23 186.34 4.23 184.23 2.23"/><polygon class="cls-1" points="188.83 2.23 190.94 0.23 193.06 2.23 190.94 4.23 188.83 2.23"/><polygon class="cls-1" points="193.43 2.23 195.54 0.23 197.66 2.23 195.54 4.23 193.43 2.23"/><polygon class="cls-1" points="198.03 2.23 200.14 0.23 202.26 2.23 200.14 4.23 198.03 2.23"/><polygon class="cls-1" points="202.63 2.23 204.74 0.23 206.86 2.23 204.74 4.23 202.63 2.23"/><polygon class="cls-1" points="207.23 2.23 209.34 0.23 211.46 2.23 209.34 4.23 207.23 2.23"/><polygon class="cls-1" points="211.83 2.23 213.94 0.23 216.06 2.23 213.94 4.23 211.83 2.23"/><polygon class="cls-1" points="216.43 2.23 218.54 0.23 220.66 2.23 218.54 4.23 216.43 2.23"/><polygon class="cls-1" points="221.03 2.23 223.14 0.23 225.26 2.23 223.14 4.23 221.03 2.23"/><polygon class="cls-1" points="225.63 2.23 227.74 0.23 229.86 2.23 227.74 4.23 225.63 2.23"/><polygon class="cls-1" points="230.23 2.23 232.34 0.23 234.46 2.23 232.34 4.23 230.23 2.23"/><polygon class="cls-1" points="234.83 2.23 236.94 0.23 239.06 2.23 236.94 4.23 234.83 2.23"/><polygon class="cls-1" points="239.43 2.23 241.54 0.23 243.66 2.23 241.54 4.23 239.43 2.23"/><polygon class="cls-1" points="244.03 2.23 246.14 0.23 248.26 2.23 246.14 4.23 244.03 2.23"/><polygon class="cls-1" points="248.63 2.23 250.74 0.23 252.85 2.23 250.74 4.23 248.63 2.23"/><polygon class="cls-1" points="253.22 2.23 255.34 0.23 257.45 2.23 255.34 4.23 253.22 2.23"/><polygon class="cls-1" points="257.82 2.23 259.94 0.23 262.06 2.23 259.94 4.23 257.82 2.23"/><polygon class="cls-1" points="262.42 2.23 264.54 0.23 266.65 2.23 264.54 4.23 262.42 2.23"/><text class="cls-2" transform="translate(108.66 11.6)"> </text></g></g></g></g></g></svg>