<svg xmlns="http://www.w3.org/2000/svg" viewBox="0 0 295.52 83.44"><defs><style>.cls-1{fill:#ed7923;}.cls-2{fill:#8d4715;}</style></defs><g id="Capa_2" data-name="Capa 2"><g id="Contenido_Mesa_2" data-name="Contenido Mesa 2"><g id="Logo_Restaurante" data-name="Logo Restaurante"><path class="cls-1" d="M11.28,58.38c0,.08-.08.13-.13.13s-.08,0-.14-.13h.27a2.45,2.45,0,0,0,0-.27c0-.09-.1-.12-.25-.09s-.08.08-.17.22a.41.41,0,0,0-.16,0l-.15,0h0c0-.12-.14-.18-.31-.18a.89.89,0,0,0-.4.13L9.6,57.8a1.64,1.64,0,0,0-.22-.39.83.83,0,0,1-.24-.4c0-.12,0-.25,0-.4a.21.21,0,0,1,0-.17A.2.2,0,0,0,9,56.26a.53.53,0,0,1-.18-.46.79.79,0,0,0,0-.46v-.18L8.88,55a.64.64,0,0,1,.06-.16l.4-.39a1,1,0,0,1-.4-.05.33.33,0,0,0,.11-.2.44.44,0,0,1,.11-.2c.21-.2.4-.41.58-.61a2.2,2.2,0,0,1,.66-.53,1.08,1.08,0,0,0,.35-.27,3.74,3.74,0,0,1-.13-1.27.53.53,0,0,0,0-.33,1.42,1.42,0,0,1-.11-.33,5.56,5.56,0,0,1-.05-.82,7.09,7.09,0,0,0,0-.81c0-.24,0-.47,0-.71s0-.47-.07-.7,0-.48,0-.73a3.55,3.55,0,0,1,0-.73,8.68,8.68,0,0,0,0-1.14c0-.38,0-.78-.06-1.19a11,11,0,0,1,0-1.15q0-.57,0-1.14a1.69,1.69,0,0,0,0-.33,1,1,0,0,1,0-.34,5.72,5.72,0,0,1,0-.59,4.87,4.87,0,0,1,.06-.55.88.88,0,0,1,0-.24,1.68,1.68,0,0,0,0-.2c0-.32-.05-.65-.07-1a6.4,6.4,0,0,0-.11-1,.08.08,0,0,1-.07,0s-.05-.06-.11-.09l-.26-.09c-.09,0-.19.1-.31.31a.7.7,0,0,0-.06.17.58.58,0,0,1-.11.18,2.45,2.45,0,0,0-.49.09,2.5,2.5,0,0,0-.09.62l-.08,0a.11.11,0,0,1-.12-.07.09.09,0,0,0-.1-.06.26.26,0,0,0-.29.09.33.33,0,0,1-.33.08s-.09,0-.18.09a.22.22,0,0,1-.11.2,1,1,0,0,0-.2.16c-.2.08-.3.29-.3.61a1.11,1.11,0,0,1-.27.13.55.55,0,0,0-.22.14.58.58,0,0,0-.09.39.48.48,0,0,0,0,.22q0,.27-.27.27a.78.78,0,0,1-.22-.09.17.17,0,0,0-.13,0c-.23,0-.36.16-.37.33a1.69,1.69,0,0,0,0,.5,1.48,1.48,0,0,1-.31.13q-.14,0-.18.27a3.36,3.36,0,0,1-.08.66.2.2,0,0,1-.22.22.09.09,0,0,1-.14,0,1.42,1.42,0,0,1-.08-.18.14.14,0,0,0,0-.09c-.09,0-.13.08-.13.22a.12.12,0,0,1,0,.09.14.14,0,0,0,.05.09l0,.13a.27.27,0,0,0-.2.29.45.45,0,0,1-.06.33,1.94,1.94,0,0,1-.58.53,1.78,1.78,0,0,1-.74.13,6.38,6.38,0,0,0-.69-.13,1.46,1.46,0,0,1-.72-.4c0,.2.1.36.13.46s.06.2.09.29a.2.2,0,0,1-.14,0c-.08,0-.25-.11-.48-.35s-.39-.4-.55-.59a1.69,1.69,0,0,1-.33-.73A2.78,2.78,0,0,1,0,42.18V41.5a5.47,5.47,0,0,1,.37-1.76,7.65,7.65,0,0,1,.86-1.59,5.16,5.16,0,0,0,.4-.63c.12-.23.25-.45.4-.69a36.18,36.18,0,0,1,5.33-5.72,39.88,39.88,0,0,1,6.39-4.54,17,17,0,0,1,2.75-1.3,14,14,0,0,1,2.93-.77c.23,0,.47-.06.7-.07a3.49,3.49,0,0,0,.71-.11.88.88,0,0,1,.29-.05h.28a6.11,6.11,0,0,1,.73.05,5.86,5.86,0,0,1,.73.13l.63.09a1.69,1.69,0,0,1,.55.18,5.56,5.56,0,0,0,.8.35,6.21,6.21,0,0,1,.75.31,7.36,7.36,0,0,1,1.76,1.16,5.5,5.5,0,0,1,1.23,1.7,2.08,2.08,0,0,0,.31.35,2.75,2.75,0,0,0-.15.36c-.05.11,0,.25.15.39q.09,1,.27,1.92a6.12,6.12,0,0,1,0,1.91,6.55,6.55,0,0,0-.11,1,7.78,7.78,0,0,1-.11,1,.64.64,0,0,0,0,.27c.09,0,.14,0,.14-.05a2.16,2.16,0,0,0,.13-.7,1.68,1.68,0,0,1,.17-.71.21.21,0,0,0,0-.19.54.54,0,0,1,0-.2.32.32,0,0,1,.35-.36l-.09.36a1.39,1.39,0,0,0,0,.35c0,.12,0,.24,0,.35a2.17,2.17,0,0,1,0,.36,1,1,0,0,1-.35.83c0,.15.05.27.07.35a2.1,2.1,0,0,0,.06.31,2.08,2.08,0,0,1-.35.31v.13a1.49,1.49,0,0,1,.11.44.55.55,0,0,1-.15.44.64.64,0,0,0-.13.4,1.62,1.62,0,0,1-.05.4.41.41,0,0,1-.2.09.15.15,0,0,0-.11,0q-.09.36-.15.66c0,.21-.1.43-.16.66l0,0h-.09a.66.66,0,0,0-.09.26c-.06.18-.11.38-.17.62a.62.62,0,0,1-.22.37.49.49,0,0,0-.18.38,1.06,1.06,0,0,0,0,.39.45.45,0,0,1-.16.36.21.21,0,0,0,0,.22.54.54,0,0,1,0,.31,1,1,0,0,0-.31.22.67.67,0,0,0-.17.39.6.6,0,0,1-.22.31c-.12.09-.14.25-.05.49a2.42,2.42,0,0,1-.24-.2l-.15-.16a1,1,0,0,1,0,.51l-.33.42a.69.69,0,0,1,0,.42.9.9,0,0,1-.26.41.49.49,0,0,0-.13.27.3.3,0,0,1-.27.22c-.06,0-.09,0-.09.13a1.15,1.15,0,0,1-.17.62,2.68,2.68,0,0,1-.4.48,1.19,1.19,0,0,0-.15.18l-.16.18a1.57,1.57,0,0,0-.2-.25,1.59,1.59,0,0,1-.2-.24l-.08.18c.05.12.11.23.15.35a.51.51,0,0,1,0,.4,1,1,0,0,1-.22.13s0,0,0,0-.15,0-.18,0a.86.86,0,0,0-.13-.17,2,2,0,0,0-.42.57,1.54,1.54,0,0,0,0,.71l-.13-.2-.09-.16q-.18.09-.18.18a.39.39,0,0,1,0,.18v.26a.62.62,0,0,1-.27.11,1.24,1.24,0,0,0-.3.11c.05.06.11.12.15.18s.1.11.15.17-.16.24-.48.27a.52.52,0,0,1,0,.5,1.3,1.3,0,0,0-.11.51H21.1a3.15,3.15,0,0,0,0,.53.64.64,0,0,1-.22.48l-.13-.39c-.12,0-.19,0-.22,0a.41.41,0,0,0,0,.18.68.68,0,0,0,0,.31,2.51,2.51,0,0,1,0,.3.54.54,0,0,1-.31.09c-.11,0-.2.08-.26.22a2,2,0,0,0-.13.33c0,.11-.06.23-.09.38l-.31.17a.73.73,0,0,0-.09-.13.32.32,0,0,1-.08-.13l-.45.31a1.72,1.72,0,0,1,0,.33c0,.1,0,.23,0,.37a1.19,1.19,0,0,0-.18-.15,1.25,1.25,0,0,1-.17-.16.79.79,0,0,0,0,.25.45.45,0,0,1,0,.2.17.17,0,0,0-.13,0,.26.26,0,0,0-.18.09l-.18.18-.11,0s-.08,0-.11.07v.35a4.09,4.09,0,0,1-.3.44,2.13,2.13,0,0,1-.18-.31l-.31.16a.5.5,0,0,0-.22.28c0,.15-.07.23-.22.23a6.47,6.47,0,0,0-.62.35c-.29.17-.45.34-.48.48l-.09.09a.78.78,0,0,1-.26,0,.48.48,0,0,0-.22.05.35.35,0,0,0-.11.18.24.24,0,0,1-.16.13,6.36,6.36,0,0,0-.66.2,1.73,1.73,0,0,0-.57.33A.25.25,0,0,1,13,58a.2.2,0,0,1-.11,0s-.05,0-.11,0a.59.59,0,0,0-.38.11l-.33.24A.26.26,0,0,1,12,58.2s-.05-.06-.11-.09S11.51,58.26,11.28,58.38ZM3.61,43.75a0,0,0,0,0,.05,0A0,0,0,0,0,3.61,43.75ZM6.26,40.4c0-.06,0-.09,0-.09S6.23,40.4,6.26,40.4Zm4.18,17.93.05,0S10.47,58.33,10.44,58.33Zm.93-2.91a.64.64,0,0,0,.22-.08l-.22-.22a.24.24,0,0,1-.09.06.26.26,0,0,0-.09.11C11.19,55.44,11.25,55.48,11.37,55.42ZM14.58,39a.08.08,0,0,1,0,.07.08.08,0,0,0,0,.06A.3.3,0,0,0,14.58,39Zm0,.88,0-.09a.18.18,0,0,0,0-.13v.22Zm.13-6.21a.14.14,0,0,0,.05-.09s0,0,0,0S14.67,33.63,14.67,33.66Zm1.81,11.41a.17.17,0,0,0,.13,0V45c0-.06-.12-.1-.27-.13A.92.92,0,0,0,16.48,45.07Zm0,.49a.2.2,0,0,0-.05-.14.14.14,0,0,1-.09,0,.13.13,0,0,0,.07,0S16.45,45.53,16.48,45.56Zm5.59-12.12a1.17,1.17,0,0,0,.25-.77,4.29,4.29,0,0,0-.12-.77,1.44,1.44,0,0,0-.79-1l-.26.09a.86.86,0,0,1-.27.05.66.66,0,0,1-.26-.09.64.64,0,0,0-.27,0,3.34,3.34,0,0,1-.52.14,2.42,2.42,0,0,0-.53.13,3,3,0,0,1-.51.22l-.55.17-.6.18a1.14,1.14,0,0,0-.5.31.31.31,0,0,0-.33.09,1,1,0,0,0-.2.35.87.87,0,0,1,.35.79v.53a1,1,0,0,0,0,.42c0,.13.08.27.13.42s.05.12.07.17a.67.67,0,0,0,.07.18v.2c0,.07-.06.14-.18.2s-.16.22,0,.39.06.1.11.11a.23.23,0,0,1,.11.11,2.82,2.82,0,0,1,0,.55,6.12,6.12,0,0,1,0,.69h-.14c-.2.06-.26.14-.17.26l.17.18.18.17v1.46c-.18-.06-.26-.1-.26-.14A.82.82,0,0,1,17,39a.92.92,0,0,0,0-.29h-.05a3.86,3.86,0,0,1,0,.47c0,.16,0,.31,0,.46l.29.15a.44.44,0,0,1,.15.29.39.39,0,0,0,0,.13s0,.07,0,.13a1.38,1.38,0,0,0,0,.6,2.53,2.53,0,0,1,0,.55,1,1,0,0,1-.14.61.45.45,0,0,0,0,.31.69.69,0,0,1,0,.42,2.72,2.72,0,0,0,0,.42c0,.15-.1.28-.31.4a.85.85,0,0,1,.18.35.88.88,0,0,1-.22.35,1.47,1.47,0,0,1,.13.24.28.28,0,0,0,.22.16,11.41,11.41,0,0,0,.75-1.1c.26-.44.52-.91.77-1.39s.48-1,.71-1.43l.55-1.19a7.14,7.14,0,0,0,.37-.8c.1-.26.21-.52.33-.79.21-.5.4-1,.57-1.43s.37-.93.58-1.43a2.73,2.73,0,0,0,.22-1,2.49,2.49,0,0,1,0-.4A.67.67,0,0,1,22.07,33.44Zm-5.24,7.23.09,0a.17.17,0,0,0-.05-.13s0,0,0,0S16.83,40.64,16.83,40.67Zm.09-3.84,0,.05V37a.33.33,0,0,1,.13-.08s0-.06,0-.07a.12.12,0,0,1,0-.07s-.05,0-.07,0S17,36.8,16.92,36.83Zm2.25,5.11s0,0,0,0a.08.08,0,0,0,0-.07.08.08,0,0,0,0-.07.08.08,0,0,1,0-.06l-.09.08C19.12,41.91,19.13,41.94,19.17,41.94Zm4.18,6.44c-.06,0-.09,0-.09-.05a0,0,0,0,1,0,.05Zm0,.08h-.09a.15.15,0,0,0,0-.08s0,0,0,0S23.35,48.43,23.35,48.46Zm2.78-4.93a.28.28,0,0,0-.09-.35L25.91,43c-.06.12,0,.18.08.18l.07.15A.71.71,0,0,0,26.13,43.53Zm3.12-13.66a1.08,1.08,0,0,1,.27.27.79.79,0,0,1,0,.39,1.23,1.23,0,0,1-.2-.35C29.3,30.12,29.28,30,29.25,29.87Zm.49,2.29a.55.55,0,0,1-.18-.66q.23.18.24.24A1,1,0,0,1,29.74,32.16Z"/><path class="cls-1" d="M48.9,37.54a1.88,1.88,0,0,1,.29.66c0,.2.08.42.11.66s0,.22-.13.22H49c0,.09.05.17.06.24a2.17,2.17,0,0,0,.07.24c.06.12.08.19.06.22A.87.87,0,0,1,49,40l-.17.18a8.15,8.15,0,0,0,.17.88c-.38.21-.5.47-.35.79a1,1,0,0,1,0,.36.51.51,0,0,0-.24-.29.7.7,0,0,1-.29-.24c0,.15,0,.25,0,.31a.28.28,0,0,1,.11.22,1,1,0,0,0,0,.28c0,.11.06.2.09.29l-.49-.31-.17.31a1.08,1.08,0,0,1,.09.4.77.77,0,0,0,.08.35v0a1.23,1.23,0,0,0-.22.36,2,2,0,0,0-.11.24.86.86,0,0,0,.07.33h-.35c0,.12-.06.22-.09.31a.51.51,0,0,0,0,.35h0v0a1.2,1.2,0,0,0-.25-.13,1.47,1.47,0,0,1-.24-.13.61.61,0,0,1,0,.15.23.23,0,0,0,0,.16.55.55,0,0,1,0,.64,4.61,4.61,0,0,0-.4.5c-.23,0-.37.08-.39.22l-.09.44H45.6a.62.62,0,0,0-.11.27.73.73,0,0,1-.11.26.08.08,0,0,0-.09-.09.2.2,0,0,1,.05.14.63.63,0,0,1-.25.44,1.28,1.28,0,0,1-.42.17,1.4,1.4,0,0,0-.33.11l-.24.16-.42.48a2.18,2.18,0,0,1-.42.44c-.23,0-.42.15-.57.44a.63.63,0,0,1-.53.36,1,1,0,0,1-.48-.14c0-.08-.08-.13-.13-.13a.26.26,0,0,0-.18,0c-.06,0-.09.05-.09.08a.12.12,0,0,1,0,.09.57.57,0,0,1-.53.31.64.64,0,0,1-.27,0,1.54,1.54,0,0,0-.39-.05h-.18c-.12,0-.19,0-.22,0a.71.71,0,0,0-.53-.22,1.79,1.79,0,0,1-.57-.09c-.24-.06-.46-.13-.68-.2a4.87,4.87,0,0,1-.69-.29c-.26-.14-.52-.3-.77-.46s-.5-.31-.77-.46a1.51,1.51,0,0,1-.79-.93,1.38,1.38,0,0,0-.13-.22,2,2,0,0,1-.71-.3,1,1,0,0,1-.31-.62,1.5,1.5,0,0,0-.22-.49l-.3-.39a.38.38,0,0,1-.12-.18.35.35,0,0,0-.11-.18c-.05-.17-.11-.35-.17-.52a1.57,1.57,0,0,0-.27-.49.45.45,0,0,1-.11-.24.65.65,0,0,0-.11-.29c-.06-.14-.11-.28-.17-.39s-.12-.25-.18-.4a1.27,1.27,0,0,1-.18-1v-.35a.65.65,0,0,0-.13-.62.86.86,0,0,1-.2-.46,2.25,2.25,0,0,1,0-.51,1.61,1.61,0,0,0,0-.44,3.24,3.24,0,0,1,0-.44v-.79a3.55,3.55,0,0,0,.08-.73,5.84,5.84,0,0,1,.05-.73,8.38,8.38,0,0,1,.4-2c.05-.18.11-.35.17-.53l.18-.53c.11-.35.3-.81.55-1.38a15.79,15.79,0,0,1,.88-1.74c.34-.59.69-1.14,1.06-1.66a4.14,4.14,0,0,1,1-1.08,7.45,7.45,0,0,1,.9-.81A8.72,8.72,0,0,1,38,26.48a7.52,7.52,0,0,1,1.32-.57,3.73,3.73,0,0,1,1.19-.22c.2,0,.4,0,.59,0h.55l.49,0a1.89,1.89,0,0,1,.44.11A1.08,1.08,0,0,0,43,26a.79.79,0,0,0,.49-.13c.2.12.4.22.59.31a2.16,2.16,0,0,0,.64.18,5.33,5.33,0,0,1,.6.11l.59.15c.38.12.57.32.57.62a.61.61,0,0,0,.14.44A3,3,0,0,0,47,28a.7.7,0,0,0,.24.15.63.63,0,0,1,.24.16,1,1,0,0,1,.31.48.42.42,0,0,1,.07.29c0,.1,0,.19.15.28a.6.6,0,0,1,.22.53V30a.9.9,0,0,1,.38.69,1.15,1.15,0,0,0,.28.72,1.25,1.25,0,0,0,.07.27,4.91,4.91,0,0,1,.11.48c0,.18.06.34.09.49a1.62,1.62,0,0,1,0,.3,1.14,1.14,0,0,1-.09.16l-.13.15a.2.2,0,0,0,0,.14,1.15,1.15,0,0,1,.44,1.14,2.41,2.41,0,0,1,0,.4c0,.11,0,.25,0,.39v.49a1.24,1.24,0,0,0,.09.48c.06.15,0,.26,0,.33l-.24.25a5.73,5.73,0,0,0,.3.61,1.76,1.76,0,0,1-.33,0Zm-17,1c0-.38.05-.76.06-1.12s0-.76.07-1.17a.53.53,0,0,0-.22.44,4.56,4.56,0,0,1-.09.92,2.1,2.1,0,0,0,0,.93Zm0,2a1.89,1.89,0,0,1,0-.44C31.74,40.27,31.72,40.42,31.9,40.53ZM45.2,55.65l-.06,0s0,0-.07.09h1a1.57,1.57,0,0,1,.62.13.51.51,0,0,1,0,.53l-.22.09-.26.08a.33.33,0,0,1-.11-.17.58.58,0,0,0-.11-.18,2.49,2.49,0,0,0,0,.4.44.44,0,0,1-.16.35.26.26,0,0,1-.09-.18.64.64,0,0,1-.13.12.64.64,0,0,0-.13.1.73.73,0,0,0-.09-.13.32.32,0,0,1-.08-.13l-.27.22h-.13A.48.48,0,0,1,44.7,57a1.15,1.15,0,0,0-.25-.12,1,1,0,0,0-.19.31.36.36,0,0,1-.29.22.27.27,0,0,1-.11-.08.54.54,0,0,0-.11-.14l-.18.2a1.07,1.07,0,0,1-.22.2,1.12,1.12,0,0,0-.75-.22h-.48a3.31,3.31,0,0,0-.55,0,2,2,0,0,1-.55-.09,4.27,4.27,0,0,0-.49,0,2.31,2.31,0,0,0-.48.07,1.42,1.42,0,0,1-.31,0l-.26,0a.5.5,0,0,0-.27.05.34.34,0,0,1-.22-.09h-.31c-.14.09-.23.11-.26.09a.6.6,0,0,0-.31-.05h-.62l-.44-.07-.44,0H36.3a1,1,0,0,0-.35,0,.33.33,0,0,1-.31-.15l-.37,0a1.1,1.1,0,0,1-.33-.12,1,1,0,0,0-.22-.08c-.06,0-.15.07-.27.22A2.31,2.31,0,0,1,34,55.91a.43.43,0,0,1,.31-.57l.52-.14c.21,0,.41,0,.6,0a4,4,0,0,0,.59,0,.69.69,0,0,0,.27-.09,2,2,0,0,0-.49-.05,5.78,5.78,0,0,0-.81.07,5.79,5.79,0,0,1-.82.07.82.82,0,0,1,.22-.89A5.85,5.85,0,0,1,36,53.29a10.53,10.53,0,0,1,1.79-.51l.77-.15.72-.16a4.43,4.43,0,0,1,.73-.11c.25,0,.49,0,.73-.06A4.53,4.53,0,0,0,41.94,52a3.6,3.6,0,0,1,1-.13,2.36,2.36,0,0,1,.53,0l.84.16a2.5,2.5,0,0,1,.79.28.93.93,0,0,1,.35.36.1.1,0,0,1-.08-.05l.08.09c.15.21.3.4.47.6a2.23,2.23,0,0,0,.59.5.35.35,0,0,1,.13.49.29.29,0,0,1-.26.17,1.67,1.67,0,0,1-.35-.08h-.27a.64.64,0,0,1,.27,0,.14.14,0,0,0,0,.09.3.3,0,0,1,0,.13.83.83,0,0,0,.44.2,1.49,1.49,0,0,1,.44.11,2.88,2.88,0,0,0,.26.48l-.17.09a.41.41,0,0,1-.18,0,.33.33,0,0,1-.15,0l-.16,0a.66.66,0,0,0-.26-.09.64.64,0,0,1-.36.09h-.35A.51.51,0,0,0,45.2,55.65ZM34.63,56h0l0,0Zm0,.62a.12.12,0,0,0,0-.09S34.63,56.51,34.63,56.57ZM40.58,43a.76.76,0,0,0,.5-.31,4.69,4.69,0,0,0,.55-.72,6.85,6.85,0,0,0,.47-.89,3.13,3.13,0,0,0,.24-.77,6.28,6.28,0,0,0,.11-1.72,8.91,8.91,0,0,1,0-1.71l.09-.71a1.25,1.25,0,0,0-.13-.7,1.77,1.77,0,0,1-.16-.86,6.21,6.21,0,0,0,0-1,2.3,2.3,0,0,0-.22-.82.71.71,0,0,0-.7-.35,1.55,1.55,0,0,0-1,.42,4.73,4.73,0,0,0-.86,1,6.65,6.65,0,0,0-.61,1.26,4.66,4.66,0,0,0-.29,1.19c0,.23-.07.48-.11.75a3.77,3.77,0,0,1-.2.75,3.36,3.36,0,0,0-.13.5c0,.16.06.32.26.46a.53.53,0,0,0,.07.38,2.87,2.87,0,0,1,.18.4.74.74,0,0,1,0,.39.84.84,0,0,1-.35.42c.49.18.79.4.88.66l.19.6a3.11,3.11,0,0,0,.29.61,2.58,2.58,0,0,0,.4.51A.69.69,0,0,0,40.58,43Zm-1.41-4.14v0h-.05Zm1-5.24h0l0,.08Zm1.67,16a.08.08,0,0,0,.07,0,.08.08,0,0,1,.06,0s0,0,0-.07l0-.06c-.06,0-.08,0-.08.08Zm.66.09a.76.76,0,0,0,.09-.35s-.06,0-.18-.22l-.13.26-.09.18c-.06.15,0,.23.09.26S42.38,49.89,42.47,49.74Zm3,3.92a.67.67,0,0,0-.31.09v0a.35.35,0,0,1,.22.05.17.17,0,0,1,.13,0,.17.17,0,0,0,.13,0,.14.14,0,0,0,.09,0v0C45.61,53.72,45.52,53.66,45.47,53.66Zm.26.8-.13,0a.12.12,0,0,0-.09,0c-.15.06-.19.12-.13.18a.18.18,0,0,0,.26,0A.29.29,0,0,0,45.73,54.46ZM47.8,31h0v0Zm1.1,8.9L49,40C49,39.9,49,39.89,48.9,39.92Z"/><path class="cls-1" d="M70.18,52.78c0,.06,0,.1,0,.11a.08.08,0,0,0,0,.07,3,3,0,0,1,0,.42.76.76,0,0,1-.13.41.26.26,0,0,0,.09.18c.05.12.07.21,0,.26l-.16.25-.15.24-.18.33a.84.84,0,0,0-.08.37l-.33.09c-.11,0-.17.12-.2.27s-.19.31-.31.31h-.09c-.12,0-.19,0-.22.13a.54.54,0,0,1-.13.22l-.27.13c0-.06,0-.09-.08-.09a.2.2,0,0,0-.14.05.22.22,0,0,1-.13,0,.14.14,0,0,1-.13-.09.08.08,0,0,0-.09-.09.22.22,0,0,0-.17.09c-.06.12,0,.21,0,.27a1.36,1.36,0,0,0,.24.24,2.17,2.17,0,0,1,.29.24v0a1.82,1.82,0,0,0,.13.3h0a.84.84,0,0,1-.53-.13c-.06-.12-.13-.17-.22-.17a.71.71,0,0,0-.31-.09.27.27,0,0,0-.09.35v0s0,0,0,.09a3.51,3.51,0,0,0-.77-.33,2.7,2.7,0,0,1-.78-.33,1.36,1.36,0,0,1-.52-.57,1.65,1.65,0,0,1-.09-.22,1.65,1.65,0,0,0-.09-.22,1.2,1.2,0,0,1-.93-.35,2.25,2.25,0,0,1-.44-.84,3.93,3.93,0,0,0-.22-.66,1.36,1.36,0,0,0-.39-.53,2.61,2.61,0,0,1-.58-1.19,2.9,2.9,0,0,0-.48-1.06,4.73,4.73,0,0,1-.53-1.23,4.16,4.16,0,0,0-.66-1.37,2.17,2.17,0,0,1-.15-.35l-.16-.4a3.56,3.56,0,0,0-.57-1.14,17,17,0,0,1-1.63-2.91.61.61,0,0,1-.11-.28,1.22,1.22,0,0,0-.11-.34.31.31,0,0,1,0-.13s0-.07-.08-.13a2.56,2.56,0,0,0-.2-.26,1.84,1.84,0,0,1-.2-.31,2,2,0,0,0-.09.2.21.21,0,0,0,0,.19,2.18,2.18,0,0,1,0,.84,3,3,0,0,0,0,.79,1.35,1.35,0,0,1,0,.53.81.81,0,0,0,0,.49.78.78,0,0,1,0,.5c0,.17-.08.33-.11.51a2,2,0,0,0,0,.49,4.52,4.52,0,0,1,0,.52,5.63,5.63,0,0,1,0,.71,2.73,2.73,0,0,0,0,.7,1.81,1.81,0,0,1,0,.69,5,5,0,0,0,0,.68c0,.15,0,.28,0,.4a1.06,1.06,0,0,0,0,.39,2.63,2.63,0,0,1-.13,1,.85.85,0,0,0,0,.39.38.38,0,0,1-.09.53v0s0,.05,0,.08a.44.44,0,0,1,0,.44,2.13,2.13,0,0,0-.2.4,1.1,1.1,0,0,0-.09.49q0,.21-.09.39a.41.41,0,0,1-.26.27,2.64,2.64,0,0,1-.18.3.64.64,0,0,0-.09.36c0,.14,0,.24-.11.28a1,1,0,0,0-.19.16l-.34.17-.28.18c-.12.23-.22.35-.31.35a.75.75,0,0,1-.26,0h-.31c0-.09-.13-.13-.31-.13s-.29.11-.44.15l-.44.15a1.75,1.75,0,0,1-.93-.26c-.06,0-.08-.06-.08-.09a.14.14,0,0,0,0-.09,4,4,0,0,1-.31-.66,1.93,1.93,0,0,1-.13-.7l.09-.86.09-.86c0-.5.06-1,.08-1.45s.06-1,.09-1.46c0-.29,0-.58.07-.86s0-.55,0-.81,0-.63,0-.9a8.38,8.38,0,0,1,0-.86V45.6c0-.23,0-.48,0-.73s0-.49,0-.72,0-.63,0-.91,0-.56.06-.86a1,1,0,0,0,0-.28.48.48,0,0,1,0-.29,2.19,2.19,0,0,0,.07-.66c0-.21,0-.41,0-.62a.33.33,0,0,1,0-.2.65.65,0,0,0,0-.19,3.71,3.71,0,0,0,.22-1.28c0-.44,0-.87,0-1.28s0-.64-.07-.95a3.09,3.09,0,0,1,.11-.94v-.22a8.57,8.57,0,0,1-.17-1.72V32.07a2,2,0,0,1,.7-1.63,2.4,2.4,0,0,0,.49-.55c.14-.22.29-.43.44-.64a.44.44,0,0,0,.11-.15.77.77,0,0,1,.06-.15.86.86,0,0,1,.4-.18.35.35,0,0,1,.26.13.71.71,0,0,1,.18.27l.31-.4a.65.65,0,0,1,.31-.18.48.48,0,0,1,.22,0,1.17,1.17,0,0,0,.26,0c.06,0,.1,0,.11,0a.23.23,0,0,1,.11,0,.69.69,0,0,1,.27.09,2,2,0,0,0,.37.15.91.91,0,0,1,.33.2,1.84,1.84,0,0,0,.53.51,1.3,1.3,0,0,1,.48.51,3.61,3.61,0,0,0,.47.68,1,1,0,0,1,.24.81l.29.49c.1.17.19.34.28.48a.26.26,0,0,0,.18.09,4,4,0,0,0,.22.75c.15.26.28.53.42.81s.27.57.42.86a1.09,1.09,0,0,0,.22.38c.08.1.17.23.26.37l.07,0a.06.06,0,0,0,.06,0l-.39-.93c-.12-.2-.22-.4-.31-.57s-.19-.37-.31-.57-.1-.43-.13-.58.22,0,.31.18a1.05,1.05,0,0,0,.22.26.4.4,0,0,1,.08.36.42.42,0,0,0,.22.35.46.46,0,0,1,.33.33,1.89,1.89,0,0,0,.2.46c-.06.15,0,.26,0,.33a1.6,1.6,0,0,1,.22.24,3.18,3.18,0,0,1,.37.36.86.86,0,0,1,.2.44.22.22,0,0,0,.09.17,2.08,2.08,0,0,1,.48.6c.12.22.25.45.4.68a.78.78,0,0,0,.09-.22,1.69,1.69,0,0,0,0-.33,3.25,3.25,0,0,1,0-.33l.09-.44a1,1,0,0,1,.22-.44.88.88,0,0,0,.31-.71v-2.2c0-.23,0-.48,0-.73s0-.49,0-.72l-.14-3.57v-.84a1.35,1.35,0,0,1,.18-.7,1.68,1.68,0,0,1,.29-.44.75.75,0,0,1,.5-.22.68.68,0,0,0,.27-.07c.09,0,.17-.1.26-.15a3.42,3.42,0,0,1,1.76-.49.72.72,0,0,0,.4.46,2.16,2.16,0,0,0,.62.16,1.06,1.06,0,0,1,.44.22,2.79,2.79,0,0,1,.37.55,1,1,0,0,1,.11.64s0,.15,0,.37,0,.46.07.71.06.58.09,1a3.84,3.84,0,0,0,0,1.12,4.22,4.22,0,0,1,0,1.12,4.45,4.45,0,0,0,0,.73l.09.73v1a2.49,2.49,0,0,0,0,.46.65.65,0,0,1-.09.47c-.06.06-.06.13,0,.22a.62.62,0,0,1,.09.46,1.19,1.19,0,0,0,0,.46,3.25,3.25,0,0,1,0,.33.56.56,0,0,0,0,.29.54.54,0,0,1,0,.31c-.12.12-.12.26,0,.44a.32.32,0,0,1-.18.48l-.09.09.13.27a.18.18,0,0,1,0,.24.37.37,0,0,0-.08.2,1,1,0,0,0,.11.24,1,1,0,0,0,.15.2.8.8,0,0,1,0,.31.27.27,0,0,0,0,.44.46.46,0,0,1,0,.48,1,1,0,0,0-.07.22.25.25,0,0,0,.07.22c.09.15.1.27,0,.35a1.74,1.74,0,0,1-.22.27,1.1,1.1,0,0,1,.18.31.4.4,0,0,0-.11.41c0,.14.08.28.11.42a12.5,12.5,0,0,1,0,1.5.48.48,0,0,1-.18.35.17.17,0,0,0,0,.27c.12.15.09.26-.09.35s-.19.16,0,.31a.8.8,0,0,1,.17.53.63.63,0,0,0,.07.26.24.24,0,0,1,0,.27.76.76,0,0,1,0,.5.53.53,0,0,0,.16.51.34.34,0,0,1,0,.18.49.49,0,0,0,.09.57.88.88,0,0,0,.39.79.59.59,0,0,1,.18.88.33.33,0,0,0,0,.14.45.45,0,0,1,0,.13.91.91,0,0,1,.35.35,2,2,0,0,1,.36.53c0,.18-.08.26-.22.26l-.25-.06-.24-.07a.22.22,0,0,0-.17.09c0,.12,0,.17.08.17a.92.92,0,0,0,.36.05c.17.06.2.16.08.31l-.08.17a1.92,1.92,0,0,0,.19.38,1.81,1.81,0,0,1,.2.33.23.23,0,0,1-.11,0s0,0-.11,0a.12.12,0,0,1-.09,0l.09.09c.06,0,.1,0,.11,0A.23.23,0,0,1,70.18,52.78Zm-16,3.66h0c0-.06,0-.09-.08-.09S54.16,56.44,54.19,56.44Zm.35.13h.13a.21.21,0,0,0-.13-.09.14.14,0,0,1-.09.05A.18.18,0,0,0,54.54,56.57Zm6.61-20.09s.05,0,.13.09c-.06-.18-.11-.34-.15-.49a.82.82,0,0,0-.29-.39v.17A2.89,2.89,0,0,0,61.15,36.48Zm7.53,5h0Zm.58,9.29a.12.12,0,0,1,0,.09s0,0,.09,0l.22,0a.6.6,0,0,0-.22-.13l-.07,0S69.29,50.75,69.26,50.75Z"/><path class="cls-1" d="M93.36,34.63a.38.38,0,0,0-.09.48,1.63,1.63,0,0,1,.17.91,7.85,7.85,0,0,1-.13.94c-.06.3-.12.59-.17.89l-.18.88a.34.34,0,0,0,0,.15.16.16,0,0,1,0,.11.86.86,0,0,0-.31.46,1.69,1.69,0,0,0,0,.55.37.37,0,0,1-.26.4A.44.44,0,0,0,92,41a.78.78,0,0,1-.27.66.29.29,0,0,1-.22.09.25.25,0,0,0-.17-.05.76.76,0,0,0-.29.05.61.61,0,0,1-.24,0h-.13l.35.35A1,1,0,0,1,91,43c-.06.21-.16.32-.31.35a.61.61,0,0,0-.35.53l-.09.27-.09.26a1.89,1.89,0,0,1-.35.71.75.75,0,0,0-.17.39,3.43,3.43,0,0,1-.18.38.64.64,0,0,1-.35.24.56.56,0,0,0-.27.35.76.76,0,0,1-.15.35,1.84,1.84,0,0,0-.2.31,1.77,1.77,0,0,1-.31.51l-.39.42a1,1,0,0,0-.29.31,2.43,2.43,0,0,0-.2.35l-.4.66a.16.16,0,0,1-.17.13.31.31,0,0,1-.27,0,.37.37,0,0,0-.17,0c-.09,0-.16.09-.22.27s0,.28,0,.41,0,.28-.07.42a1.57,1.57,0,0,1-.44.18.38.38,0,0,1-.27-.13c-.11.06-.16.12-.13.17a.41.41,0,0,1,0,.18l-.11.2a.19.19,0,0,0,0,.2c0,.2,0,.29-.15.26a.25.25,0,0,0-.29.09,1.14,1.14,0,0,0-.3.07s0,.08,0,.19a.78.78,0,0,0,0,.16.33.33,0,0,1,0,.15q0,.09-.18.27a.24.24,0,0,0-.13.15.28.28,0,0,1-.14.16c-.14,0-.23.05-.26.17a.24.24,0,0,1-.26.18l-.14,0a.23.23,0,0,0-.13,0c-.12.06-.16.14-.13.22a.69.69,0,0,1,0,.22.43.43,0,0,1-.48.44.15.15,0,0,1-.09,0l-.13,0h-.18c0,.21,0,.4,0,.59a1.42,1.42,0,0,1-.2.6l-.33.15-.37.16v.35s0,0,0,.07-.06,0-.09.11a.47.47,0,0,0-.22-.18.66.66,0,0,0-.06.2.83.83,0,0,1-.11.24A.21.21,0,0,1,80.6,56c.05-.09,0-.16-.11-.22s-.26,0-.44.22a4,4,0,0,1-.55.46l-.64.42-.13.07a.64.64,0,0,0-.13.1.86.86,0,0,1-.49.4,2.31,2.31,0,0,1-.53.09,3.64,3.64,0,0,1-.61-.09,1.19,1.19,0,0,0-.36,0,1.26,1.26,0,0,0-.48.08,2.94,2.94,0,0,1-1,.27,1.67,1.67,0,0,0-1.1.53.26.26,0,0,1-.18.09.78.78,0,0,1-.22-.09,1.54,1.54,0,0,1-.7-.8q0-.16-.09-.3a1,1,0,0,1,0-.31c-.06-.5-.11-1-.14-1.52a13.7,13.7,0,0,1,0-1.57c.06-.79.09-1.58.09-2.38V46.52q0-1.23.09-2.46c0-.41,0-.84,0-1.28A8.87,8.87,0,0,1,73,41.5a11.19,11.19,0,0,0,.11-1.91c0-.64,0-1.27-.06-1.92,0-.41,0-.81,0-1.19s0-.76-.06-1.15l-.09-.53a3.3,3.3,0,0,0-.13-.52s0-.05-.13-.05-.09,0-.09.05a.33.33,0,0,0,0,.22.59.59,0,0,0-.06.2c0,.07-.07.1-.16.1s-.24-.1-.28-.3a2.17,2.17,0,0,1-.07-.44,4.73,4.73,0,0,1,.18-1.85,2.83,2.83,0,0,1,.3-.89,2.7,2.7,0,0,0,.31-.88.15.15,0,0,1,.09-.13.27.27,0,0,0,.13-.13,7.89,7.89,0,0,1,.34-1,6.57,6.57,0,0,1,.5-1,1,1,0,0,0,.13-.28c0-.11.06-.2.09-.29a1,1,0,0,0,.11-.31.66.66,0,0,1,.11-.26.39.39,0,0,1,.24-.22.42.42,0,0,0,.25-.18,1.28,1.28,0,0,0,.13-.29.39.39,0,0,1,.22-.24A8.87,8.87,0,0,0,76,25.6a1.92,1.92,0,0,1,1-.27h1a.08.08,0,0,1,.09.09c0,.06,0,.08,0,.07a.12.12,0,0,0-.08,0c-.12.05-.18.1-.18.13s0,.13.09.13a2.25,2.25,0,0,0,.35.22h.35a17.93,17.93,0,0,1,2-.73c.64-.19,1.32-.36,2-.5a6.71,6.71,0,0,1,1.55-.27c.52,0,1,0,1.58,0a2.45,2.45,0,0,1,.46,0l.47.09.46.09.46.09a.48.48,0,0,0,.22,0l1.54.84a.39.39,0,0,1,.27.26.4.4,0,0,0,.22.27l.66.26s.07.06.13.18a.3.3,0,0,1,.07.11.24.24,0,0,0,.06.11,1.25,1.25,0,0,1,.6.5,3,3,0,0,0,.46.6.73.73,0,0,1,.18.66.14.14,0,0,0,0,.15l.09.16.3.39a.45.45,0,0,1,0,.44.2.2,0,0,0,0,.14.48.48,0,0,1,.09.13l.18.44a1.14,1.14,0,0,1,.08.44,1.36,1.36,0,0,0,.23.44v-.4a2,2,0,0,1,.26.77,6.7,6.7,0,0,0,.13.82,3.74,3.74,0,0,1,.07.88,5.15,5.15,0,0,0,0,.88A.58.58,0,0,1,93.36,34.63ZM73.93,58.07l0,0S73.93,58,73.93,58.07Zm2.29-32.38,0-.05s0,0,0,0l0,0Zm9.29,9.07a6,6,0,0,0,0-2.64,2.52,2.52,0,0,0-.22-.55c-.09-.16-.18-.33-.26-.51s-.06-.13-.18-.13a1.31,1.31,0,0,0-.66-.18.88.88,0,0,1-.29.05h-.28a6.32,6.32,0,0,0-.64,0,1.06,1.06,0,0,0-.55.2.2.2,0,0,1-.14,0l-.08,0a.15.15,0,0,0-.09,0,.62.62,0,0,0-.49.3.64.64,0,0,0-.5.38,1.51,1.51,0,0,0-.11.59q0,.32-.09.6a1.26,1.26,0,0,0,.09.64v.17a.76.76,0,0,0-.07.4,2.49,2.49,0,0,1,0,.4,5.68,5.68,0,0,0,0,.59.86.86,0,0,1-.16.55.36.36,0,0,0,0,.35,3.51,3.51,0,0,1,.11,1.06c0,.35,0,.71,0,1.06a17.14,17.14,0,0,1-.09,1.76,11.53,11.53,0,0,0,0,1.76,5.08,5.08,0,0,1,0,.78,6.23,6.23,0,0,0-.05.77,2.11,2.11,0,0,1,0,.35.46.46,0,0,0,.15.35,3.1,3.1,0,0,0,.69-.77c.31-.43.62-.89.94-1.41s.62-1,.89-1.45a10.16,10.16,0,0,0,.48-.91.11.11,0,0,0,0-.09.15.15,0,0,1,.05-.08,6.54,6.54,0,0,0,.48-.73,2.53,2.53,0,0,0,.31-.82A1.82,1.82,0,0,0,85,37l.18-.7c.05-.24.11-.49.15-.75S85.46,35,85.51,34.76Zm2.6,11.94a.2.2,0,0,0,.14,0l-.09-.09h-.09a.08.08,0,0,0,0,.06A.08.08,0,0,1,88.11,46.7ZM89.61,44l.13,0-.08-.18a.56.56,0,0,0-.14.09s0,0,0,.07S89.58,44,89.61,44Zm.8-.92a.17.17,0,0,1,.08-.11s.05,0,.05-.07-.09-.25-.27-.31a.17.17,0,0,0-.13,0l0,.09A3.37,3.37,0,0,0,90.41,43.09Zm.44-.79v.13l.06,0a.09.09,0,0,1,.07,0v-.17s0,0-.07,0A.12.12,0,0,0,90.85,42.3Zm.44-2a4,4,0,0,1,.22-.49.89.89,0,0,0,0-.61,2.21,2.21,0,0,0-.26,1.14Zm1.54-4.8a.86.86,0,0,0-.22-.8v.27c0,.09-.08.11-.22.09a1.83,1.83,0,0,0-.11.48,1.77,1.77,0,0,1-.11.44c0,.12,0,.16.11.13s.15,0,.15.09,0,.18.09.18.13,0,.13-.18.06-.27.09-.37Z"/><path class="cls-1" d="M95.38,53.4c.12,0,.18-.13.18-.31a1.87,1.87,0,0,1,0-.42,1,1,0,0,0,0-.42c0-.55,0-1.11,0-1.65s0-1.11.11-1.7a1.19,1.19,0,0,0,0-.46q0-.24-.09-.51a10.88,10.88,0,0,1-.11-1.12,6.85,6.85,0,0,1,.07-1.17v-.28a1.27,1.27,0,0,0,0-.29,2.57,2.57,0,0,1-.16-1,4.06,4.06,0,0,0-.07-1v-.31a2,2,0,0,0,0-1.32,1.82,1.82,0,0,1,0-.4c0-.38,0-.75.07-1.12s0-.76,0-1.17a9.81,9.81,0,0,1,0-1.21c0-.4,0-.8,0-1.21,0-.59,0-1.19.06-1.81s0-1.23.07-1.85a4.17,4.17,0,0,1,0-1.06c0-.35,0-.7,0-1.05s0-.66,0-1,0-.66.07-1a3.26,3.26,0,0,0,0-.53,1.31,1.31,0,0,1,0-.57.83.83,0,0,0,.13-.44,1.3,1.3,0,0,1,1-1.28,7.22,7.22,0,0,1,1.52-.26c.51,0,1-.07,1.56-.13s1.18-.1,1.77-.11l1.76-.07c.76-.06,1.51-.09,2.25-.11l2.24,0a2.67,2.67,0,0,1,.88.13,1.55,1.55,0,0,1,.71.53,1.77,1.77,0,0,0,.44.4,1,1,0,0,1,.44.88,1.67,1.67,0,0,1,0,.37c0,.13,0,.26.22.38a.16.16,0,0,1,0,.26,3.24,3.24,0,0,1-.53.75,1.59,1.59,0,0,1-.29.29,1.77,1.77,0,0,1-.33.19,1.65,1.65,0,0,0-.37.22.57.57,0,0,1-.38.14h-.13a.82.82,0,0,1-.44.08h-.13a.62.62,0,0,0-.27,0h-.7a5.61,5.61,0,0,0-1.32.26l-.31.09a.38.38,0,0,1-.27-.13s-.1,0-.22,0a.93.93,0,0,1-.66.24,2.47,2.47,0,0,0-.75.06.38.38,0,0,1-.13.27.36.36,0,0,0,0,.48,1,1,0,0,1,0,1.1.46.46,0,0,1,0,.14.24.24,0,0,0,0,.13,4.12,4.12,0,0,1,0,.86,1.85,1.85,0,0,0,.09.81.41.41,0,0,1-.18.44c-.12.06-.15.16-.09.31l.13.13a.87.87,0,0,1,.27,1.19,1.3,1.3,0,0,0,0,.4c0,.21.06.41.07.62a3.49,3.49,0,0,0,.11.66,1.35,1.35,0,0,0,.33,0h.29l.72,0,.73,0h.18a.83.83,0,0,1,.66.31,1.81,1.81,0,0,1,.7,1.27l.13.4A.42.42,0,0,0,107,40q-.23.32.18.48a2,2,0,0,0,.35.07.45.45,0,0,1,.26.11.33.33,0,0,1,.14.35,1.09,1.09,0,0,0,0,.44.31.31,0,0,1-.09.33,2.34,2.34,0,0,1-.27.2.23.23,0,0,0-.17.05,7.4,7.4,0,0,0-.8.13l-.83.18a9,9,0,0,0-1.13.17l-.64.13c-.26,0-.39.2-.39.49,0,0,0,0,0,.06a.08.08,0,0,1,0,.07c0,.15.07.31.11.48a.47.47,0,0,1-.15.49.08.08,0,0,0,0,.11.26.26,0,0,1,0,.15,1.71,1.71,0,0,0,0,.6,1.08,1.08,0,0,1,0,.59.81.81,0,0,0,0,.49,1.13,1.13,0,0,1,0,.48,2.07,2.07,0,0,0,.18,1,1.6,1.6,0,0,1-.22,1.46,3.85,3.85,0,0,0,.22.52c.09.18.17.39.26.62h1.41l.49,0a3.46,3.46,0,0,0,.48-.07l.64,0a4.68,4.68,0,0,1,.64.12,6,6,0,0,0,1.15.13,1.25,1.25,0,0,1,.88.28,1.59,1.59,0,0,1,.57.73,1.08,1.08,0,0,1,0,.75,1,1,0,0,0,0,.31c0,.12-.08.2-.23.26s-.19.3,0,.53a3.17,3.17,0,0,0,.35.27c-.06.17-.12.33-.19.48a.66.66,0,0,1-.42.31c-.12,0-.13.15,0,.35.06,0,.1.12.13.27l-.66.52-.13.14c-.06.11-.13.17-.22.17a.12.12,0,0,1-.09,0h-.22a6,6,0,0,1-.86.35,4.06,4.06,0,0,1-.77.05c-1,0-2,0-3,0h-3a1.48,1.48,0,0,0-.44.09.92.92,0,0,1-.57.17,1,1,0,0,1-.31,0h-.31a1.61,1.61,0,0,1-.35,0h-.55a3.21,3.21,0,0,1-.55-.05c-.21,0-.31-.09-.31-.26s-.13-.12-.31-.18l-.33-.09-.33-.08a.56.56,0,0,1-.48-.4c0-.21-.21-.37-.53-.49-.15,0-.22-.14-.22-.35a2.3,2.3,0,0,0,0-.53A.37.37,0,0,1,95.38,53.4Zm3.44-7a.08.08,0,0,1,.09-.09v-.09l0,0a.11.11,0,0,0-.08,0l-.09,0a.24.24,0,0,1,.06.09ZM99,50.62v0l0,0Zm3.87-5.55h0v0Zm.49,3.57a.12.12,0,0,0,.09,0l0-.05A.12.12,0,0,0,103.36,48.64Z"/><path class="cls-1" d="M116.89,50.9c.1,0,.14-.11.14-.25a1.86,1.86,0,0,1,0-.34,1,1,0,0,0,0-.34c0-.44,0-.89,0-1.32s0-.89.09-1.36a1.21,1.21,0,0,0,0-.38c0-.13,0-.26-.07-.4a7.19,7.19,0,0,1-.09-.91,6.05,6.05,0,0,1,0-.93v-.23a.93.93,0,0,0,0-.24,1.93,1.93,0,0,1-.13-.79,3.05,3.05,0,0,0-.05-.8v-.25a1.6,1.6,0,0,0,0-1.06,1.22,1.22,0,0,1,0-.32c0-.3,0-.6,0-.9s0-.61,0-.94a7.89,7.89,0,0,1,0-1c0-.32,0-.64,0-1,0-.48,0-1,0-1.46s0-1,0-1.48a3.48,3.48,0,0,1,0-.85c0-.28,0-.57,0-.85s0-.53,0-.8,0-.53,0-.79a2.31,2.31,0,0,0,0-.43,1.27,1.27,0,0,1,0-.46.62.62,0,0,0,.11-.35,1,1,0,0,1,.78-1,5.11,5.11,0,0,1,1.22-.21c.41,0,.83-.06,1.26-.11s.94-.08,1.41-.09l1.42-.05q.92-.07,1.8-.09l1.81,0a2.25,2.25,0,0,1,.71.11,1.17,1.17,0,0,1,.56.42,1.3,1.3,0,0,0,.36.32.75.75,0,0,1,.35.71,1.53,1.53,0,0,1,0,.3c0,.11,0,.21.17.3a.14.14,0,0,1,0,.22,2.39,2.39,0,0,1-.42.6,1.25,1.25,0,0,1-.23.23,1.75,1.75,0,0,1-.27.16,1,1,0,0,0-.3.17.44.44,0,0,1-.3.11h-.1a.67.67,0,0,1-.36.07h-.1a.43.43,0,0,0-.22,0h-.56a4.06,4.06,0,0,0-1.07.21l-.24.07a.29.29,0,0,1-.21-.11.36.36,0,0,0-.18,0,.74.74,0,0,1-.53.19,2.21,2.21,0,0,0-.61.06.29.29,0,0,1-.1.21.29.29,0,0,0,0,.39.86.86,0,0,1,0,.88.27.27,0,0,1,0,.11.25.25,0,0,0,0,.1,2.66,2.66,0,0,1,0,.69,1.62,1.62,0,0,0,.07.66.3.3,0,0,1-.14.35.17.17,0,0,0-.07.25l.11.11a.68.68,0,0,1,.21.95,1.19,1.19,0,0,0,0,.32,4.26,4.26,0,0,1,.06.5,2.8,2.8,0,0,0,.09.53l.26,0h.82l.58,0h.14a.66.66,0,0,1,.53.25,1.43,1.43,0,0,1,.57,1l.1.32a.39.39,0,0,0-.21.18c-.12.16-.07.29.14.39l.29,0a.34.34,0,0,1,.21.09.28.28,0,0,1,.11.28.73.73,0,0,0,0,.36.25.25,0,0,1-.07.26l-.22.16c-.07,0-.12,0-.14,0-.21,0-.42.06-.64.1l-.67.15a6.64,6.64,0,0,0-.9.14l-.52.1a.34.34,0,0,0-.31.39.11.11,0,0,0,0,.06s0,0,0,0,.06.25.09.39a.38.38,0,0,1-.12.39s0,0,0,.09a.21.21,0,0,1,0,.12,1.29,1.29,0,0,0,0,.48.88.88,0,0,1,0,.48.69.69,0,0,0,0,.38.76.76,0,0,1,0,.39,1.84,1.84,0,0,0,.14.78,1.26,1.26,0,0,1-.17,1.17,2.94,2.94,0,0,0,.17.43,4.68,4.68,0,0,1,.22.49H125a2.68,2.68,0,0,0,.39,0l.39,0,.51,0a2.61,2.61,0,0,1,.51.09,4.54,4.54,0,0,0,.93.1,1,1,0,0,1,.7.23,1.24,1.24,0,0,1,.46.59.88.88,0,0,1,0,.6.9.9,0,0,0,0,.25q0,.14-.18.21c-.14.09-.15.24,0,.42a1.79,1.79,0,0,0,.28.22,3.52,3.52,0,0,1-.16.39.5.5,0,0,1-.34.24c-.09,0-.1.12,0,.29,0,0,.08.09.1.21l-.53.42-.1.11c-.05.09-.11.14-.18.14a.11.11,0,0,1-.07,0h-.18a4.33,4.33,0,0,1-.69.28,3.61,3.61,0,0,1-.62,0l-2.44,0h-2.44a1.08,1.08,0,0,0-.36.07.68.68,0,0,1-.46.14,1,1,0,0,1-.25,0h-.24a.78.78,0,0,1-.29,0h-.44a3.15,3.15,0,0,1-.44,0c-.17,0-.25-.07-.25-.22a.51.51,0,0,0-.25-.14l-.26-.07-.27-.07a.45.45,0,0,1-.39-.32q0-.24-.42-.39c-.12,0-.18-.11-.18-.28a2.31,2.31,0,0,0,0-.43A.29.29,0,0,1,116.89,50.9Zm2.76-5.6a.07.07,0,0,1,.07-.07v-.07l0,0h-.07a.11.11,0,0,1-.07,0l0,.07A.18.18,0,0,0,119.65,45.3Zm.15,3.36v0l0,0Zm3.11-4.46h0v0Zm.39,2.87a.11.11,0,0,0,.07,0l0,0S123.3,47.05,123.3,47.07Z"/><path class="cls-1" d="M131.12,53.48c0,.07-.1.11-.23.12s-.15,0,0-.05l.12,0,.13-.06a.05.05,0,0,0-.07,0c-.05,0-.09,0-.11,0l-.11-.09-.1-.08s-.07-.06,0-.11a.08.08,0,0,1,.08-.07l.32-.11c.12,0,.12-.06,0-.17l-.1-.07-.11-.08a.75.75,0,0,1-.18-.07l-.17-.1a1.78,1.78,0,0,1-.06-.39c0-.17,0-.33,0-.48v-.44a.55.55,0,0,1,0-.25v-.3c0-.18,0-.38,0-.6l0-.68a2,2,0,0,0-.06-.47.45.45,0,0,1,0-.36.73.73,0,0,0,.09-.35v-.27a.79.79,0,0,0-.07-.3,2.11,2.11,0,0,1,0-.72,3.51,3.51,0,0,1,.09-.76,1.05,1.05,0,0,0,0-.5,1,1,0,0,1-.08-.37,3,3,0,0,1,0-.41,3,3,0,0,0,.07-.69v-.72a8.34,8.34,0,0,1,0-1c0-.33.05-.66.07-1s0-.47,0-.7v-.75a34.37,34.37,0,0,1,.1-4.18c.05-.47.1-.92.16-1.36a9.23,9.23,0,0,1,.27-1.29.85.85,0,0,0,0-.28q.07-.83.15-1.56a15.26,15.26,0,0,1,.21-1.56.76.76,0,0,1,.67-.67.78.78,0,0,0,.5-.32.43.43,0,0,1,.28-.25,2.38,2.38,0,0,1,.39,0l.3,0a1.24,1.24,0,0,1,.3,0l.32-.32a3,3,0,0,1,.32-.28.78.78,0,0,1,.6-.22l.28,0c.07,0,.14.08.21.2a.34.34,0,0,1,.11.17.9.9,0,0,0,.11.22.39.39,0,0,0,.21.24,1.12,1.12,0,0,1,.25.29,1.33,1.33,0,0,1,.1.28.47.47,0,0,0,.22.25s0,.05,0,.14a.47.47,0,0,0,.07.28,1.22,1.22,0,0,1,.14.28c.1.15.12.26.07.36a.7.7,0,0,0-.07.42,1.82,1.82,0,0,0,.11.39.42.42,0,0,1,0,.46.2.2,0,0,0-.05.2,1.85,1.85,0,0,1,0,.23.82.82,0,0,1,0,.26.45.45,0,0,1-.11.27.2.2,0,0,0,0,.21,1,1,0,0,0,.11.43.54.54,0,0,1,.07.26,1.78,1.78,0,0,1,0,.3,2.25,2.25,0,0,0-.06.36.72.72,0,0,0,.06.35c0,.05,0,.08,0,.09s0,0,0,.09a1.48,1.48,0,0,0,0,.55,1.43,1.43,0,0,1,0,.54,1.15,1.15,0,0,0-.07.36.66.66,0,0,0,.11.35s0,.1,0,.22a.45.45,0,0,0,0,.28.23.23,0,0,1,0,.28.22.22,0,0,0,0,.32.25.25,0,0,1-.1.39.26.26,0,0,0-.11.28,3.54,3.54,0,0,1,.14.39.9.9,0,0,1,0,.43c0,.12,0,.19,0,.21s-.16.15-.12.23a.33.33,0,0,1,0,.27,1,1,0,0,0,.07.49.14.14,0,0,0,0,.07.25.25,0,0,1,0,.07,1.39,1.39,0,0,1,.05.37q0,.09-.27.27a.21.21,0,0,1,0,.11.19.19,0,0,0,0,.1,1.32,1.32,0,0,1,.19.6,3.4,3.4,0,0,1,0,.64.62.62,0,0,1,0,.18.3.3,0,0,1-.08.17.52.52,0,0,0-.13.38.78.78,0,0,1-.05.37.11.11,0,0,0,0,.07v.07c.12.07.16.15.13.25a.45.45,0,0,0,0,.28s0,.1-.11.14l-.1.11a.23.23,0,0,1,.05.3.23.23,0,0,0,0,.3c0,.12,0,.25,0,.39a.66.66,0,0,1-.09.39.35.35,0,0,0,.07.35.88.88,0,0,1,.18.25c.05.12.06.19,0,.21a.3.3,0,0,0-.07.34.39.39,0,0,1,0,.3.21.21,0,0,0,.07.28.38.38,0,0,1,.09.09s0,.08-.06.13a.36.36,0,0,0-.1.42,2.68,2.68,0,0,1,.1.35.6.6,0,0,1-.07.4c-.05,0-.05.11,0,.19a.58.58,0,0,1,.06.26h1.5c.34,0,.68,0,1-.06l.74,0h.75l.46,0a.78.78,0,0,1,.42.22.48.48,0,0,0,.23.07.22.22,0,0,1,.2.14,2.85,2.85,0,0,1,.1.32,2.21,2.21,0,0,1,.07.32s0,.07-.05.08a.38.38,0,0,0-.09.09v.14a.18.18,0,0,0,.14,0s.06,0,.11-.07.09.05.07.07a.16.16,0,0,0,0,.11.51.51,0,0,0,.07.17v.18a.36.36,0,0,0-.2.34c0,.13,0,.25.05.37v0h-.17c-.07,0-.11.07-.13.2s0,.22,0,.26-.07.17-.22.29a.58.58,0,0,1-.35.17.51.51,0,0,0-.21.08.81.81,0,0,1-.46.1l-.55,0h-.55l0,0a.15.15,0,0,1-.17,0,.59.59,0,0,0-.23,0h-.83a1.4,1.4,0,0,1-.53-.07.17.17,0,0,0-.11,0l-.11,0-.1,0-.11,0a.68.68,0,0,1-.28-.07c-.1-.05-.17-.05-.22,0a.55.55,0,0,1-.39.1h-.21a.49.49,0,0,1-.3,0,.85.85,0,0,0-.3,0,.34.34,0,0,0-.25.07,1,1,0,0,0-.28,0H135l-.26,0h-.57l-.1,0a.16.16,0,0,0-.11,0,3.45,3.45,0,0,1-1,.21,3.39,3.39,0,0,0-.94.22.48.48,0,0,1-.5,0A.55.55,0,0,0,131.12,53.48Z"/><path class="cls-2" d="M169.14,45.18c0,.21.07.42.09.64a2.83,2.83,0,0,1,0,.7,30.46,30.46,0,0,1-.55,3.07,20.79,20.79,0,0,1-.92,3l-.19,1a7.2,7.2,0,0,1-.32,1,3.63,3.63,0,0,1-.51.84.34.34,0,0,0-.13.38.66.66,0,0,1-.1.54l-.35.48a3.51,3.51,0,0,0-.64,2,.29.29,0,0,1-.06.19,1.52,1.52,0,0,0-.68.86,2.55,2.55,0,0,1-.47.93,3.17,3.17,0,0,1-.64.51,1,1,0,0,0-.64,1,.69.69,0,0,1-.58.51,3.79,3.79,0,0,0-.86.35,3.13,3.13,0,0,0-.74.54,1.83,1.83,0,0,1-.16.26.26.26,0,0,1-.22.13,1.38,1.38,0,0,0-.7.32,1.21,1.21,0,0,1-.45.06,1.5,1.5,0,0,0-1.35.71.25.25,0,0,1-.19.06.45.45,0,0,0,.07-.38.19.19,0,0,0-.07-.13.09.09,0,0,0-.13,0,1.18,1.18,0,0,0-.83.83h0a.61.61,0,0,0-.16.26c0,.08-.09.12-.22.12h-.26a1.94,1.94,0,0,1-.57.07,3.61,3.61,0,0,1-1.6-.45q-.71-.32-1.95-1a5.06,5.06,0,0,1-1.7-1.31c-.3-.34-.6-.66-.92-1a3.71,3.71,0,0,1-.8-1.09,12.16,12.16,0,0,0-1.22-1.66,2,2,0,0,1-.61-.83,7.46,7.46,0,0,0-.41-1c-.39-1.19-.73-2.42-1-3.68s-.54-2.5-.71-3.74-.19-2.23-.32-3.36a17.18,17.18,0,0,1-.06-3.36q.06-1,0-2a6.06,6.06,0,0,1,.29-2,1,1,0,0,0,.09-.54,4.21,4.21,0,0,0-.09-.55,11.78,11.78,0,0,1,.32-3.19,4.71,4.71,0,0,0,.09-.52,4.59,4.59,0,0,1,.1-.51,6.19,6.19,0,0,1,.35-1.69c.19-.53.39-1.06.61-1.57a30.21,30.21,0,0,1,2.2-4.41,21.14,21.14,0,0,1,3.07-3.94,17.66,17.66,0,0,1,3.91-2.94,12,12,0,0,1,4.7-1.44,4.16,4.16,0,0,1,.54,0,3.4,3.4,0,0,1,.54.16,1.36,1.36,0,0,0,.71.2,3.3,3.3,0,0,1,1.79.48A10.21,10.21,0,0,1,165,20.11a.45.45,0,0,1,.26.44.92.92,0,0,0,.44.58,2.58,2.58,0,0,1,.87,1c.32.56.54,1,.67,1.22l.12.38a.93.93,0,0,1,.07.32,1.38,1.38,0,0,0,.32,1,1,1,0,0,1,.19.71l.13.38c0,.13.08.26.13.39a.83.83,0,0,1,0,.63.5.5,0,0,0-.13.49.41.41,0,0,1-.26.47s-.06.09-.06.26a1.59,1.59,0,0,0,0,.29,1.5,1.5,0,0,1,0,.29,3.18,3.18,0,0,0,.1.7,1.18,1.18,0,0,1,0,.7,1.64,1.64,0,0,1-.36.55c-.14.15-.3.33-.47.54a.44.44,0,0,0-.07.19.49.49,0,0,1-.06.19c-.13,0-.2,0-.23-.12a1.34,1.34,0,0,0-.09-.26c-.13-.17-.22-.26-.26-.26s-.15.09-.19.26,0,.06,0,.06,0,0,0,.07H166a.24.24,0,0,1-.19-.07.39.39,0,0,0-.26-.06.31.31,0,0,1,0,.13.28.28,0,0,0,0,.13c-.09.17-.15.25-.19.25s-.11-.06-.19-.19-.24-.26-.32-.26-.07.05-.32.13h-.07a.47.47,0,0,1-.19,0,.44.44,0,0,0-.19,0,.58.58,0,0,1-.77-.51,1.69,1.69,0,0,0-.29-.52l-.35-.44c-.12-.22-.17-.34-.12-.39a1.39,1.39,0,0,0-.07-.93,3.17,3.17,0,0,1-.26-.86,3.31,3.31,0,0,0-1.08-2.17,1.43,1.43,0,0,0-.83-.32,1,1,0,0,0-.39.06,1.22,1.22,0,0,1-.45.19l-.44.13c-.13.05-.21.11-.23.19a1.34,1.34,0,0,1-.09.26h.06a3.25,3.25,0,0,0-.45.38c-.13.22-.26.43-.41.64a2.61,2.61,0,0,0-.35.71,1.78,1.78,0,0,0,.06.51.77.77,0,0,1,0,.76c-.09.22-.17.43-.26.64a1.08,1.08,0,0,0,0,.71c0,.08,0,.25-.06.51a.57.57,0,0,1-.06.25.24.24,0,0,0,0,.26,1.6,1.6,0,0,1,.06,1c-.09.3-.17.62-.26,1a.77.77,0,0,1-.22.35,3.17,3.17,0,0,0-.29.35.8.8,0,0,1,.19.8,3.15,3.15,0,0,0-.12.87h-.07a.17.17,0,0,1-.12.06c-.22.13-.24.28-.07.45a.59.59,0,0,1,.19.83.44.44,0,0,0,.07.38,1.12,1.12,0,0,1,0,.42,1.84,1.84,0,0,1-.35.41.22.22,0,0,1,.06.13,1,1,0,0,1,.32.35.46.46,0,0,1,0,.48.75.75,0,0,1-.77.45.22.22,0,0,0-.19.16c0,.11,0,.18.07.23a1.73,1.73,0,0,1,.44.67c.09.23.17.5.26.8a.79.79,0,0,1-.38.76l-.2.13a.62.62,0,0,1-.19.13.59.59,0,0,0,.13.41l.26.36a.92.92,0,0,1,.32.51,1.21,1.21,0,0,1-.07.64h-.7a1.36,1.36,0,0,0,.45.83,1.25,1.25,0,0,1,.25.77,1.79,1.79,0,0,1-.51-.07,2.34,2.34,0,0,1,.64,1.09,10.94,10.94,0,0,1,.19,1.21c.09.73.19,1.45.32,2.15a9.41,9.41,0,0,0,.64,2.08,2.22,2.22,0,0,0,.54.83c.24.21.46.42.68.64a1,1,0,0,0,.38.13.46.46,0,0,0,.32-.13,1.88,1.88,0,0,0,.77-1l.76-2.87c.22-.9.44-1.8.68-2.72s.5-1.84.8-2.78a2.32,2.32,0,0,1,.63-1.06,1.81,1.81,0,0,1,1.28-.41,4.93,4.93,0,0,0,.77-.32,3.42,3.42,0,0,1,.45-.1,2.85,2.85,0,0,1,.44,0,2,2,0,0,1,1.41.51.68.68,0,0,1,.32.26.84.84,0,0,1,.16.38.57.57,0,0,0,.48.48,1.12,1.12,0,0,1,.32.09C169,44.83,169.14,45,169.14,45.18ZM156.41,31.94l-.06.06A.05.05,0,0,0,156.41,31.94Zm7.42-.58V31.3h-.07Z"/><path class="cls-2" d="M201.94,50.42c-.12.09-.15.23-.06.45a2,2,0,0,1,.22.8,5.61,5.61,0,0,0,.16.86l-.19.19a1.21,1.21,0,0,1,.1.32.33.33,0,0,1-.1.32,1.11,1.11,0,0,0-.38-.13,1.24,1.24,0,0,1,.06.64,3.5,3.5,0,0,0-.13.9,3.36,3.36,0,0,0,.13.89.36.36,0,0,1-.26.45v.13l-.25.13a.66.66,0,0,0-.45.64c0,.25,0,.51,0,.76a6.2,6.2,0,0,1,0,.71q.06.71.09,1.41c0,.47,0,.94,0,1.4.09.13.09.24,0,.32a2.53,2.53,0,0,0-.35.83,3.77,3.77,0,0,1-.28.84.65.65,0,0,1-.45.19,1,1,0,0,0-.83.32,1.93,1.93,0,0,0-.68-.64,2.09,2.09,0,0,0-.86-.13.73.73,0,0,1-.32.06,1,1,0,0,1-.51-.19.39.39,0,0,0-.26-.06.79.79,0,0,0-.32.06l-.57-.38a.53.53,0,0,0-.26-.16.15.15,0,0,1-.12-.16.7.7,0,0,0-.58-.48,4.53,4.53,0,0,1-.7-.1c-.13,0-.2,0-.2.07l-.19.19s-.13,0-.25,0a1.41,1.41,0,0,1-.71-.45c-.25-.42-.5-.86-.73-1.31a3,3,0,0,1-.35-1.44v-.54a3.29,3.29,0,0,0-.07-.55.57.57,0,0,1-.06-.25.51.51,0,0,0-.07-.26,2.42,2.42,0,0,1-.35-.73,1.47,1.47,0,0,1,.1-.87.24.24,0,0,0-.07-.19,4.27,4.27,0,0,1-.22-1.53,14.37,14.37,0,0,0,0-1.6,9.74,9.74,0,0,1-.07-1.95,9.79,9.79,0,0,0-.06-2,3,3,0,0,1-.06-1.12,10.1,10.1,0,0,0,.06-1.12V41.4c0-.3-.13-.4-.38-.32a23.57,23.57,0,0,1-3.17.42c-1,.06-2.12.14-3.23.22A.94.94,0,0,0,183,42a.65.65,0,0,0-.13.64.86.86,0,0,1,.26.71,6.86,6.86,0,0,1-.19.7.53.53,0,0,0-.29-.16.65.65,0,0,1-.29-.16c-.08.13-.08.21,0,.25a.21.21,0,0,1,.13.2l.1.22a.42.42,0,0,0,.09.16,5.71,5.71,0,0,0,.29.61.6.6,0,0,1-.1.67.3.3,0,0,0,0,.26.47.47,0,0,1,.07.25.56.56,0,0,1,0,.51,1.64,1.64,0,0,0,.13,1.41c.17.21.23.36.19.45a1.47,1.47,0,0,1-.45.38.53.53,0,0,1,.16.26.59.59,0,0,0,.16.25.49.49,0,0,1,.13.64.39.39,0,0,0,0,.26,1.07,1.07,0,0,1,0,.25.3.3,0,0,0,.06.2.44.44,0,0,1-.13.54q-.25.23,0,.54a.75.75,0,0,1,.17.51c0,.17-.06.37-.1.58a5,5,0,0,0,0,.93c0,.28,0,.56.09.86,0,.6,0,1.17,0,1.73s0,1.13.09,1.72c0,.3.07.58.1.84a3.23,3.23,0,0,1,0,.76.85.85,0,0,1-.33.71c-.25.25-.38.45-.38.57a.71.71,0,0,1-.51.71c-.21.08-.43.16-.64.22a.87.87,0,0,0-.51.42s-.11.11-.32.22a1.4,1.4,0,0,1-.39.16.5.5,0,0,1-.28-.1l-.29-.16a2.35,2.35,0,0,0-.48.71c-.11.25-.2.51-.29.76a4,4,0,0,1-.45.2,1.19,1.19,0,0,1-1-.13,1.94,1.94,0,0,0-.25-.67c-.09-.11-.3-.33-.64-.67a1.17,1.17,0,0,0-.33.19,3.07,3.07,0,0,1-1.15.48,8.24,8.24,0,0,1-1.27.09c-.22.22-.37.32-.45.32a.5.5,0,0,1-.32-.19,2.52,2.52,0,0,1-.9-1.47c-.13-.43-.23-.85-.32-1.28a3.77,3.77,0,0,1,0-1.34,4.35,4.35,0,0,0,0-1c0-.35-.08-.69-.13-1a6,6,0,0,0-.06-.86,6.11,6.11,0,0,1-.06-.86,11.64,11.64,0,0,0,0-1.67c0-.55-.07-1.13-.07-1.73,0-.93,0-1.87,0-2.81s0-1.9,0-2.88a5.49,5.49,0,0,1,.06-.83,5.25,5.25,0,0,0,.07-.83q0-.7,0-1.38c0-.44,0-.9,0-1.37q0-.12,0-1.44c0-.87.06-1.84.1-2.91s.08-2,.13-2.91.06-1.35.06-1.44a1.26,1.26,0,0,0,.06-.38,1.22,1.22,0,0,1,.07-.38c.13-1.5.23-3,.32-4.48s.13-3,.13-4.48a3.18,3.18,0,0,1,.06-.7,1.88,1.88,0,0,0,.13.57H173a3.21,3.21,0,0,0,.06-.6,3.23,3.23,0,0,1,.06-.61,5,5,0,0,0,.1-.64,4.49,4.49,0,0,1,.1-.64,2.08,2.08,0,0,1,0-.42,3.64,3.64,0,0,0,0-.48,1,1,0,0,1,.45-.7,3.62,3.62,0,0,1,.86-.42,5.46,5.46,0,0,1,1-.22,7.81,7.81,0,0,1,.9-.06,3.66,3.66,0,0,1,.77.06,6.32,6.32,0,0,0,.67.1l.73.09a2.05,2.05,0,0,1,1.41.58l.42.28a4.49,4.49,0,0,0,.41.29.87.87,0,0,1,.58.83,3.9,3.9,0,0,0,.12.84,3.41,3.41,0,0,0,.26.44,2,2,0,0,1,.13,1.6c-.09.22-.08.34,0,.39a.77.77,0,0,1,.29.19.49.49,0,0,0-.23.45,4.38,4.38,0,0,1,0,.51.47.47,0,0,0,0,.19.47.47,0,0,1,0,.19.53.53,0,0,1-.13.39.32.32,0,0,1-.12.15,1.51,1.51,0,0,0-.2.16q.25.45.48.9a1.66,1.66,0,0,1,.16,1,.22.22,0,0,0,.07.19.78.78,0,0,1,.12.19c.22.35.13.66-.25,1a1.91,1.91,0,0,1,.38,1.54,6.77,6.77,0,0,0-.06.89,2.24,2.24,0,0,0,.19.9,2.09,2.09,0,0,0,.58.06,3.55,3.55,0,0,0,.76-.06q1.22,0,2.4,0c.79,0,1.61-.06,2.46-.1a3.4,3.4,0,0,1,.61-.06h.61c.3-.09.44-.24.44-.45,0-.73,0-1.57.07-2.53s.11-1.82.19-2.59.08-1.46.1-2.2.07-1.49.16-2.21a5.93,5.93,0,0,1,.25-1.28,8.69,8.69,0,0,0,.32-1.22,3.79,3.79,0,0,1,.29-.57c.11-.17.2-.34.29-.51s.21-.31.38-.29a.45.45,0,0,0,.39-.1.47.47,0,0,0,.19-.41.44.44,0,0,1,.32-.42,1.89,1.89,0,0,1,1-.25.31.31,0,0,1,.22.09.63.63,0,0,0,.23.16.25.25,0,0,1,.25.13,1.07,1.07,0,0,0,.19.26,1.49,1.49,0,0,0,.51.25.3.3,0,0,0,.2.07.67.67,0,0,0,.06-.16.54.54,0,0,1,.06-.16,1.6,1.6,0,0,0,.07-.45c0-.13.1-.24.32-.32a1.11,1.11,0,0,1,.44-.06.8.8,0,0,1,.71.38l.06.06.07.07a.35.35,0,0,0,.19.12c.08,0,.15-.06.19-.19a.2.2,0,0,1,.16-.13c.06,0,.1.05.1.13,0,.34.15.54.45.58a.17.17,0,0,0,.12.06.17.17,0,0,1,.13.07,1.1,1.1,0,0,1,.83,1.21.7.7,0,0,0,.19.58c.22.08.32.27.32.57a4.93,4.93,0,0,0,0,1.22c.07.38.14.79.23,1.21.13.09.15.17.06.26-.17.26-.19.47-.06.64s.25.36.38.57a.53.53,0,0,0,.06.2,1.25,1.25,0,0,0-.09.25.53.53,0,0,1-.16.26.7.7,0,0,0,.06.76c.09.22.11.35.07.39a.46.46,0,0,0,0,.57.37.37,0,0,1-.07.52.35.35,0,0,1-.06.16.12.12,0,0,0,0,.16.65.65,0,0,1,.22.67,1.53,1.53,0,0,0,0,.67,6.54,6.54,0,0,1,.1.7,6.32,6.32,0,0,0,.09.7c0,.3.08.59.1.87s0,.57,0,.86a2,2,0,0,1-.26.64,1.18,1.18,0,0,1,.33.32.84.84,0,0,1,.19.39,1.25,1.25,0,0,0-.07.7.83.83,0,0,1-.19.7q-.12.14,0,.39a.64.64,0,0,0,.07.28,2.85,2.85,0,0,0,.12.29q.13.39-.12.45l-.13.06a.39.39,0,0,1-.26-.12.41.41,0,0,0-.32-.13,1.85,1.85,0,0,0-.44.06,1.43,1.43,0,0,1,.19.26l.12.25c-.17.09-.17.19,0,.32a.19.19,0,0,0,.13.07.19.19,0,0,1,.13.06,1,1,0,0,0,.25.19h-.06a.91.91,0,0,1,.1.13.32.32,0,0,0,.16.13c.42.43.61.69.57.8a9.56,9.56,0,0,1-.57.93c.08.21.17.43.25.67s.17.48.26.73,0,.43-.32.64a1.14,1.14,0,0,1,.35.71c0,.25,0,.51,0,.76s-.1.22-.32.13a.38.38,0,0,1-.09-.13,1.42,1.42,0,0,0-.16-.19.28.28,0,0,0-.13,0,.33.33,0,0,1-.13,0,.29.29,0,0,0,.06.19l.39.19a7.52,7.52,0,0,0,.32.89,1.08,1.08,0,0,1,.1.48,1.42,1.42,0,0,1-.48.36v.12a.92.92,0,0,1,.28.87,1.3,1.3,0,0,0,.1.86c-.21.21-.28.41-.19.58a2.64,2.64,0,0,1,.19.51.36.36,0,0,1,0,.29.79.79,0,0,0-.06.28c-.18.26-.2.47-.07.64S202.16,50.29,201.94,50.42Zm-6.84-32h0Zm5.82,15.48-.06-.06v.06ZM201,32s-.06,0-.06.13S201,32.09,201,32Zm.2,1.09A.3.3,0,0,1,201,33a.25.25,0,0,0-.06.19h.13Zm-.13,6,.25-.25a.45.45,0,0,1-.19,0,.28.28,0,0,0-.13,0s-.06.09-.06.26Zm.13,15.48a.15.15,0,0,1,0-.1.12.12,0,0,0,0-.09l-.13-.07a.22.22,0,0,0-.06.13Zm.38-7.29c0,.08.08.13.13.13v-.13Z"/><path class="cls-2" d="M205,58.67c.17,0,.26-.19.26-.45a2.91,2.91,0,0,1,.06-.6,1.26,1.26,0,0,0,0-.61q-.06-1.21,0-2.4c0-.79.08-1.61.16-2.46a1.89,1.89,0,0,0,0-.67c0-.24-.08-.48-.13-.74a15.49,15.49,0,0,1-.16-1.63,9,9,0,0,1,.1-1.69V47a1.16,1.16,0,0,0-.07-.42,3.71,3.71,0,0,1-.22-1.44,6.79,6.79,0,0,0-.09-1.43v-.45a3,3,0,0,0,0-1.92,1.71,1.71,0,0,1-.07-.58c0-.55.07-1.09.1-1.63s0-1.09,0-1.69a14.84,14.84,0,0,1,0-1.76c0-.58,0-1.16,0-1.76,0-.85.07-1.73.1-2.62s0-1.79.09-2.69a6,6,0,0,1-.06-1.53c0-.51.06-1,.06-1.54s0-.95,0-1.44.06-1,.1-1.44a2.9,2.9,0,0,0-.07-.76,1.93,1.93,0,0,1,.07-.83,1.24,1.24,0,0,0,.19-.64,1.87,1.87,0,0,1,1.41-1.86,9.75,9.75,0,0,1,2.2-.38c.75-.05,1.51-.11,2.27-.19s1.71-.14,2.56-.16l2.56-.1c1.11-.09,2.2-.14,3.26-.16s2.15,0,3.27,0a3.94,3.94,0,0,1,1.27.19,2.15,2.15,0,0,1,1,.77,2.55,2.55,0,0,0,.64.57,1.38,1.38,0,0,1,.64,1.28,2.67,2.67,0,0,1-.07.54c0,.2.07.38.32.55a.23.23,0,0,1,0,.38,4,4,0,0,1-.77,1.09,1.82,1.82,0,0,1-.41.42,3.77,3.77,0,0,1-.48.28,2.33,2.33,0,0,0-.54.32.82.82,0,0,1-.55.19h-.19a1.16,1.16,0,0,1-.64.13h-.19a1,1,0,0,0-.39.07h-1a7.69,7.69,0,0,0-1.92.38,2.26,2.26,0,0,1-.44.13.6.6,0,0,1-.39-.19s-.15-.07-.32-.07a1.27,1.27,0,0,1-1,.35,3.72,3.72,0,0,0-1.08.1.53.53,0,0,1-.2.38.56.56,0,0,0,0,.71,1.53,1.53,0,0,1,0,1.6.47.47,0,0,1,0,.19.47.47,0,0,0,0,.19,6.52,6.52,0,0,1,0,1.25,2.78,2.78,0,0,0,.13,1.18.59.59,0,0,1-.26.64c-.17.08-.21.23-.13.45l.2.19a1.26,1.26,0,0,1,.38,1.73,2,2,0,0,0-.06.57q.06.45.09.9a5.19,5.19,0,0,0,.16,1,2.1,2.1,0,0,0,.48.06h.42l1,0,1.06,0H220a1.21,1.21,0,0,1,1,.44,2.72,2.72,0,0,1,1,1.86l.19.58a.59.59,0,0,0-.39.31c-.21.3-.12.54.26.71l.51.09a.78.78,0,0,1,.39.16.5.5,0,0,1,.19.51,1.38,1.38,0,0,0,0,.64.45.45,0,0,1-.13.48,3.27,3.27,0,0,1-.39.29.33.33,0,0,0-.25.07,9.19,9.19,0,0,0-1.15.19l-1.22.25a15.61,15.61,0,0,0-1.63.26c-.36.09-.67.15-.92.19a.62.62,0,0,0-.58.71.12.12,0,0,0,0,.09.13.13,0,0,1,0,.1l.16.7a.69.69,0,0,1-.22.7.12.12,0,0,0,0,.16.44.44,0,0,1,.06.23,2.47,2.47,0,0,0,0,.86,1.62,1.62,0,0,1,0,.87,1.18,1.18,0,0,0,0,.7,1.53,1.53,0,0,1,0,.7,3.21,3.21,0,0,0,.26,1.41,2.25,2.25,0,0,1-.32,2.11,5.48,5.48,0,0,0,.32.77,7,7,0,0,1,.38.89h2l.7,0a4.86,4.86,0,0,0,.71-.1,8.54,8.54,0,0,1,.92,0,5,5,0,0,1,.93.16,8.54,8.54,0,0,0,1.66.19,1.8,1.8,0,0,1,1.28.41,2.28,2.28,0,0,1,.84,1.06,1.69,1.69,0,0,1,0,1.09,1.16,1.16,0,0,0-.07.44c0,.17-.11.3-.32.39s-.28.42-.06.76a2.86,2.86,0,0,0,.51.39,5.67,5.67,0,0,1-.29.7.92.92,0,0,1-.61.45q-.26.06-.06.51c.08,0,.15.17.19.39l-1,.76-.19.19c-.09.17-.19.26-.32.26a.19.19,0,0,1-.13-.06h-.32a9.18,9.18,0,0,1-1.24.51,6.77,6.77,0,0,1-1.12.06c-1.5,0-3,.07-4.42.07h-4.41a2.26,2.26,0,0,0-.64.12,1.29,1.29,0,0,1-.83.26A1.53,1.53,0,0,1,211,63h-.45a1.74,1.74,0,0,1-.51-.07h-.8a5.19,5.19,0,0,1-.8-.06q-.45,0-.45-.39a.79.79,0,0,0-.44-.25l-.48-.13-.48-.13a.8.8,0,0,1-.7-.57c0-.3-.3-.53-.77-.71-.22,0-.32-.21-.32-.51a3.6,3.6,0,0,0-.07-.77A.54.54,0,0,1,205,58.67Zm5-10.11c0-.08,0-.12.13-.12v-.13l-.06-.06a.28.28,0,0,0-.13,0l-.13,0a.64.64,0,0,1,.1.13A.47.47,0,0,0,210,48.56Zm.26,6.08v-.06l-.07.06Zm5.62-8.06H216v-.06Zm.71,5.18a.19.19,0,0,0,.13-.06l-.07-.06A.17.17,0,0,0,216.59,51.76Z"/><path class="cls-2" d="M244.35,25.52l.1,0-.09,0Zm19.2,49.68-.1,0h0Zm16.5-54,0,0h0Zm-9,52.63h0Zm.84.68h0ZM274.46,73v0h0Zm-1.54,2h0v0Zm2.22-2.31h0Zm3.94-54.43-.18.34h0l.18-.34ZM264.35,36.08l0,.07v-.1Zm15.24-17.82h0Zm-15.46,57,0,.11h.07l0-.07Zm20.54-30.92h.14l.08-.18Zm.15,0h0Zm-.36.17h0l.18-.17h0Zm8.67-10.43c.15-.12.33-.27.5-.43-.36-.52.07-.76.31-1l1.58-.15c-.1-.35-.16-.59-.23-.83-.16,0-.27.05-.41.06-.12-.24-.24-.5-.36-.75l.2-.16a2.76,2.76,0,0,1-.24-.89A1.71,1.71,0,0,0,294,28.6a4.81,4.81,0,0,0,0-1.2,13.57,13.57,0,0,0-.73-3.16c-.13-.26-.24-.51-.36-.76a4.16,4.16,0,0,1-.59-1.81,2.77,2.77,0,0,0-.56-1.47,5.17,5.17,0,0,1-.49-.76,5.71,5.71,0,0,0-.58-1.45c-.37-.45-.34-1-.61-1.44a1.55,1.55,0,0,1-.12-.76,19.7,19.7,0,0,1-1.16-2.28h-.58a2.81,2.81,0,0,0-1.2-1.91.76.76,0,0,1-.24-.23,10.19,10.19,0,0,0-2.09-2.16,24.91,24.91,0,0,0-3-2.75,15.41,15.41,0,0,0-2.52-1.77,1,1,0,0,1-.39-.3c-.33-.47-.95-.49-1.34-.85-.75.09-1.3-.42-2-.65-.31.18-.69.42-1,.11a6.24,6.24,0,0,1-.77-.89A3.41,3.41,0,0,1,273,2a12.91,12.91,0,0,1-1.39,0,2.71,2.71,0,0,1-.89-.1c-.64-.17-1.28-.4-1.92-.59a1.64,1.64,0,0,0-.83-.12,1.21,1.21,0,0,1-1.26-.32,22.2,22.2,0,0,1-2.47-.39c-.71-.21-1.55.09-2.11-.49l-3.67.7c-.17.4-.6.14-1,.35.09-.28.13-.4.21-.63l-4.81,1.51a7.28,7.28,0,0,1-2.15,1c-.68.31-1.4.58-2,1a28.18,28.18,0,0,0-3.92,3,4,4,0,0,0-.61.78c-.08.11-.12.24-.2.35a4.26,4.26,0,0,0-1,1.85c-.39.27-.88.43-1.11.77a10,10,0,0,1-1.2,1.38,1.29,1.29,0,0,0-.33.48c-.25,1-1.37,1.41-1.5,2.45l-.2.13a4.78,4.78,0,0,0-.66.84,13.58,13.58,0,0,0-.68,1.44c-.18.5-.33,1-.48,1.51a10.33,10.33,0,0,1-.72,2.46,6.22,6.22,0,0,0-.36,1.38,11.73,11.73,0,0,1-.42,1.43,1.82,1.82,0,0,0-.1,1.53c.18.41-.07.65-.6.65-.15,1.23-1,2.34-.62,3.75-.08.12-.23.32-.36.52.31.26.57.49.86.75-.24.09-.43.14-.69.23l.54.23c0,.21,0,.39,0,.57-.19,0-.34.09-.57.17.25.15.4.25.57.37-.61.85.27,1.64,0,2.53l1.06.59c-.17.33-.35.66-.52,1a10.19,10.19,0,0,0,.2,1.19,6.47,6.47,0,0,1,.23,4.23s0,0,0,.12.33,0,.55,0c.12.64.23,1.23.36,1.9-.06.18-.16.44-.25.68a5.48,5.48,0,0,1,.12,2.73l.55,0c-.13.5.23.76.54,1.09s.77.53.71,1.08l.14.1.54-.25c0-.37,0-.75,0-1.13-.06-.63-.12-1.28-.16-1.91,0-.47,0-1,0-1.43-.12-1.14-.27-2.29-.41-3.42a3.82,3.82,0,0,1,.35-2.53c.11-.19.21-.33.45-.29l.09-.1-.25-.21a.94.94,0,0,0,.25-1.07,1.33,1.33,0,0,1,.07-.52l.67.21c.72-.65,0-1.53.4-2.19-.23-.78-.46-1.55-.69-2.29.4-.43.62-.08.77.1.37-.18.67-.31,1-.43H241l.08,0h0l0,.06,0-.06c.34-.31.54-.8,1.12-.72l.08.08.06.07.17.17.12,0c.08.05.15.12.23.18H243c.16-.17.32-.35.54-.57l1.08,1.1c.55-.25.83-.77,1.45-.84s.94-.86,1.62-.5c.36-.24.67-.47.94-.64a3.14,3.14,0,0,0,1,.21,2.59,2.59,0,0,1,1.52.39c.2.1.47.28.61.22a4.36,4.36,0,0,1,1.64-.18l1.17,0c0,.2,0,.28,0,.38.3-.15.54-.36.74-.34a2.27,2.27,0,0,1,2,.9l.13.1c.16.51.45,1,0,1.59-.54-.27-.8.17-1.11.48a2.32,2.32,0,0,1-.59-.14,25.43,25.43,0,0,0-2.6-1.2c-1.16-.46-2.24,0-3.36.19-.79.78-2,.94-2.73,1.79l-.15.09c-.46.28-.92.58-1.51,1l-.88-.12-1,.55c.17.13.3.26.49.4a2.5,2.5,0,0,1-.3.68,3.61,3.61,0,0,1-.59.52c.19.37.35.68.57,1.07.16-.22.29-.41.45-.62l.53.12a3.65,3.65,0,0,1,.54-.39,2.85,2.85,0,0,1,1.82-.53c.72.14,1.47.16,2.22.23,0-.27.08-.47.12-.71a4.09,4.09,0,0,0,3.49-1.09l.63.72c.46,0,1,.08,1.5.14.23-.72.23-.7,1-.74a3.51,3.51,0,0,0,.53-.15c-.06-.27-.11-.46-.17-.69.54-.08,1-.19,1.42.16l0,2.12c-.08.07-.27.19-.53.38l.88.47h0l.46.05c.29-.32.55-.6.76-.85a5.76,5.76,0,0,0,.07-1.94c-.11-.59.2-1.25,0-1.92-.13-.18-.29-.37-.51-.62l.81-1c-.45-.16-.93.1-1.31-.23.38-.68,1.12-.16,1.56-.58l-.51-1,.53-.17v-.93l-.67.07c-.11-.31-.19-.58-.29-.89-.75.09-1-.49-1.33-1.05-.38.35-1,.17-1.14.76l-.65-.25c.05-.1.09-.16.19-.33a12.36,12.36,0,0,0-1.66-.09,1.91,1.91,0,0,1-1.21-.24c-1,.31-1.86-.2-2.83-.49-.66.49-1.67.15-2.31.74-.62.11-1-.33-1.54-.36-.72,0-1.5-.42-1.88-.28a10.8,10.8,0,0,1-2.49.16c-.12-.45-.2-.82-.3-1.19l.81-.28,0-1.39-.38-.32.45-.54c-.08-.51-.17-1-.23-1.4s.16-1.09.23-1.62a.32.32,0,0,0,.16.08,1,1,0,0,0,.24,0c-.59-.52-.58-1.6-1.68-1.63.23-.13.39-.23.59-.33l-.41-.45c-.24.26-.47.47-.71.7-.3-.36-.7-.55-.57-1l.83-.6c-.3-.4-.54-.77-.78-1.12.1-.28.21-.56.32-.87l.62-.22a2.87,2.87,0,0,1,.91-1.84c.23-.87.44-1.63.64-2.41l1.21.12,0,0c.06-.08.12-.17.19-.25h0l0,0-.11-.14,0-.12,0-1c.64-.58,1.28-1.14,1.9-1.69l0,.13c.33-.08.65-.17,1.09-.31a.69.69,0,0,0,.87-.17c0-.22,0-.46,0-.76l.67,0,1.11,1.23c.43-.5,1-.26,1.43-.41a1.56,1.56,0,0,1,1.4.29c0-.6.36-.48.68-.39,0-.41,0-.8.1-1.18,0-.1.17-.17.27-.27-.14.45-.29.81.09,1.23l.51-.57c-.08.69.08,1.14.66,1.35l.66-.26c.14.14.25.26.37.37l.11-.07c-.11-.31-.22-.6-.34-1,1,.49,1.76,1.26,2.88,1.18a3.28,3.28,0,0,0,.81.24,1.07,1.07,0,0,1,.93.61,3.29,3.29,0,0,1,.16.44c.51-.09,1,0,1.25-.61l-.16-.37a3,3,0,0,1,.22-.26c.32.39.39.43.74.39a3.9,3.9,0,0,0,.57-.13l.08.08.29.11V9c.07.11.14.3.2.3.38,0,.75-.1,1.2-.17l.29.27c0-.14,0-.24.06-.47.56.38,1.06-.11,1.63-.08-.36.7-.32.77.49.93.62-.58,1.19-.71,1.41-.32l-.22.47c.18.12.36.21.51.31.08-.32.13-.57.19-.81a8.22,8.22,0,0,0,1.09.89,5.45,5.45,0,0,0,1.9.71c.55.1.82.65,1.24,1-.07.16-.12.28-.18.39.23.28.43.54.77.94-.07-.31-.09-.43-.11-.56.59-.34,1,0,1.55.3-.16.1-.27.17-.36.24a2.36,2.36,0,0,0,1,.17c.23,0,.58.08.47.31s.22.37.22.57c.08-.08.13-.15.23-.26.12.14.25.29.41.45l.66-.22.09.34.1.17.61.41c0,.13-.08.33-.12.54l.36,0c.16-.08.3-.14.26.15.54.1.51.67.82,1-.13.2-.26.38-.38.55l-.06.06-.11,0,.09.26.16.36a1.38,1.38,0,0,1-.32.36,1.3,1.3,0,0,1-.32.15c-.1.35-.18.67-.26,1l-.65.21.53.64c-.28-.07-.26.08-.2.27l0,0c.08.12.15.24.22.36l.14-.34-.05-.11.06.11.31-.2h0l.15.12.34.41.35-.16.17-.22c-.06.08-.11.14-.16.22h0c-.11.16-.21.33-.33.49l.08.19a3.43,3.43,0,0,1,.23,1.63c-.18.68-.3.76-1,.75a1.34,1.34,0,0,1-1.12-.36,5.31,5.31,0,0,0-1,0c-.92.21-1.83.46-2.75.66a2.81,2.81,0,0,1-.71,0l.19.6-.95.08c-.43,0-.6-.52-1-.26a1.13,1.13,0,0,1-.13.94l-1-.58a2.24,2.24,0,0,1-2.57,1c-.27.22-.55.41-.78.63a5.53,5.53,0,0,0-.56.76c-.28-.31-.56-.62-1-1.05-.09.43-.14.69-.17.77-.42.76-1.09.79-1.71.91l-.53.26c-.23.56-.47,1.12-.66,1.68-.08.26.06.58-.05.81a15.47,15.47,0,0,1-.81,1.32,1.34,1.34,0,0,1,.94.72c.65-.07,1.07-.88,1.86-.53,0,.27,0,.48,0,.59l-1.12.81c.1.1.2.23.32.36l-.8.65a3.38,3.38,0,0,1,.72.61l.17.11h0c.06.17.11.35.18.52v.1c-.07.13-.14.25-.2.39a1.61,1.61,0,0,0-.26.15h0l.25-.15c-.21-.16-.28-.09-.26.15l-.42-.06a4.54,4.54,0,0,0,.24,2.39l-.71.36a3.14,3.14,0,0,0,.58.72c.28.17.39.44.59.64s.3.81.82.91c.11,0,.18.31.23.48s.12.47.17.7l0,.16-.34.18c0,.2.1.39.15.63.31.14.65.27,1,.41,0-.22,0-.42,0-.62,1.15-.11,1.84.17,2.1.83.17,0,.35,0,.56.06a3.5,3.5,0,0,1-1.2,2l-.4-.92-.89.09-.59-.51.23-.39c-.14,0-.34.06-.38.14-.46.82-1.36,1.34-1.56,2.33l-.08.15c-.18-.06-.35-.1-.65-.17,0,.38,0,.69,0,1-.58,0-1.16.15-1.43-.39l-.75.15c0,.19,0,.36-.08.67l-.73-.42c.08-.26.13-.44.23-.74l-.58.33a1.48,1.48,0,0,1-.49-.21c-.75-.8-1.69-.67-2.65-.55-.07,0-.19,0-.22.08-.28.53-.83.56-1.34.84-.3-.67-.7-1.09-1.46-.73l-.2.69a3.8,3.8,0,0,1-.43.05c0,1.24-.9,2-1.46,2.86,0,.5,0,.94.06,1.37-.18.14-.33.23-.49.37l.38.12v.15c-.35.1-.72.23-1,.32-.2.42-.36.75-.54,1.1l.31.29c-.21.23-.33.48-.75.39a.77.77,0,0,0-.61.29.46.46,0,0,0,.18.69c-.14.19-.26.38-.39.57l.08.06c.2-.13.4-.25.59-.39l.59.31c-.25.46-.81.73-.78,1.39l-.79-.39c-.15.07-.34.16-.53.27l.35.49-.6.26c.47.41.8.69.74,1.18-.14.08-.27.17-.5.33h.63l.2.48,1.28.67c.11.3.15.61.31.74a4,4,0,0,1,1.34,2l.16.14c.09-.15.19-.27.28-.44.24.54.24.54-.24,1a2.23,2.23,0,0,0,1.22-.28c.31-.39.45-.73.72-.88a3.1,3.1,0,0,1,1-.15,1.59,1.59,0,0,1-.19-1.38A15.42,15.42,0,0,0,258,64.2l.65-.11c.43.18.67.68,1.21.58a2.09,2.09,0,0,1,.29-.23s.16,0,.24.07a2.9,2.9,0,0,1,.34.19l.71-.61,1.44,0c.12-.62-.19-1.32.57-1.85-.34-.09-.57-.24-.74-.2a10.07,10.07,0,0,1-2.74-.09,2.29,2.29,0,0,1-.5-1.82l-.94-.26c0-.2,0-.4,0-.62V59.2a.22.22,0,0,0,0-.08.5.5,0,0,0,0-.17c0-.34-.1-.79-.1-.79l4.11-.14,0,.94c-.27.28-.46.47-.66.69l-1,.14c.28.53.52,1,.79,1.57.18-.3.3-.53.45-.8.16.08.29.12.4.19a2.07,2.07,0,0,0,1.63.15c.57-.16,1.13-.31,1.7-.45a1.06,1.06,0,0,1,1.29.49c.3,0,.42.11.45.39l.7.39c-.27.55-.5,1.05-.76,1.62l.53.44a.84.84,0,0,0,.25-.11,2.81,2.81,0,0,1,.52-.26c.58-.21.8,0,.8.74l-1,.39c0,.13,0,.25,0,.39-.38.28-.55,0-.75-.34-.11.2-.19.36-.31.62-.11-.23-.18-.4-.27-.62-.22,0-.43,0-.56,0l-.8.84-1.57-.4a1.12,1.12,0,0,1-1.47.47.81.81,0,0,0-1,.11c-.09.1-.38,0-.57,0-.05-.15-.08-.29-.12-.44a2.82,2.82,0,0,1-.41,0c0,.15-.09.29-.14.44l-.09.07c-.14.3-.21.31-.49,0l-.5-.33-.68.44-1.16-.38a4.55,4.55,0,0,1-.34.49c-.24-.1-.46-.16-.67-.24-.18.17-.35.35-.53.54l.07.1.67-.24c.64.23,1.32.2,1.63.82H259c.39.4,0,.78.06,1.14l.56-.08.28-.17a7.63,7.63,0,0,1,2.57.63c0-.17-.05-.29-.09-.51l.79.39.49-.51c.08.15.12.23.16.29a2.59,2.59,0,0,1,2.4-.37c0,.15,0,.27.07.43l.72-.38.09.11,1.23.16c0-.35,0-.61,0-1l1.22.73.64-.25.7.22c.44-.31.83-.6,1.26-.94l.63,1,.39-.16.76.48c.39-.23.76-.42,1.1-.66a3.93,3.93,0,0,0,.73-.63c.24-.3.43-.63.66-.94s.58-.77.9-1.22v.8c-.88.37-.89,1.1-.8,2,.12-.13.16-.2.22-.25s.15-.12.31-.26c-.16.8-.3,1.46-.43,2.16l-.37.15c.15.43.27.85.41,1.29H276l-1.19,1.14c.18.16.27.26.38.34s0,.4,0,.59c.34-.21.66-.44,1-.7.29.49-.41.74-.23,1.05l-.9.88s0,.21-.08.4a3.86,3.86,0,0,1-1.89.46l0,0-.08.09.07-.09v0l-.15-.41.59,0c0-.26.07-.47.1-.68.82.17,1.11-.49,1.51-1h-.33v-.17h0v0l.25-.16h-.26l-.41-.19h0c-.5.28-.52.33-.29.95l.36-.1,0-.16h.17l-.18.17a2.18,2.18,0,0,1-.22.31s-.14,0-.21-.06l-.79,0-.16.57-.9-.22.18.54L272,74c0,.17,0,.32,0,.47l.33.18h0c.06.12.11.23.16.35h.17l.12-.13.05.13h.18c-.11.39-.43.45-.75.5h0l.06-.33v-.51h-.34v-.17c-.19.11-.68,0-.42.48l.4-.28h0l-.4.29a4.3,4.3,0,0,0-.57-.14l.66-.7h0l.43-.67c-.4-.18-.66.1-.92.33l.48.33-.48-.33s0,0,0,0c-.39-.18-.76-.36-1.16-.57l-.6,1.11c.07.11.15.21.23.36l-.31.65-.53-.08c-.09.19-.17.38-.24.51-.26-.22-.47-.38-.69-.55.1-.19.2-.42.35-.72l-1.39.17c-.08.14-.16.31-.28.53-.54-.51-1-.13-1.59.06.06-.47-.19-.28-.38-.26a.73.73,0,0,0-.71-.5v.15l0,.08h.15l-.15,0-.07.07.75.18h0c.07.2.12.38.19.59h0c-.38.12-.74.26-1.18.41a3.13,3.13,0,0,0,.14-.35c-.28-.1-.35-.26-.16-.5a1.6,1.6,0,0,1,.08-.26,1.29,1.29,0,0,0-1.43.9l-.66-.31-.67.35-.23-.17c-.42.12-.72.21-1,.31h0l0-.06V76h0c-.32.25-.67.5-1.07.34s-1-.49-1.59-.8l.94-.39-.59-.33c-.34.46-1.05.5-1.09,1.13l-.91-1.13c-.1.15-.17.24-.35.47.11-.8-.53-1.07-.63-1.62s-.07-1.12-.11-1.76l-.62-.25c0-.09,0-.2,0-.31-.23,0-.44,0-.64-.06l-.46-.61h-.8a3.53,3.53,0,0,1,1.38-2.32c.05-.42.08-.7.11-1l-.15-.08c-.14.2-.27.41-.39.59l-2.37-.75-.45.39c.05.19.11.34.15.49l-.11.05c-.21-.26-.43-.5-.56-.65-1-.27-1.93-.52-2.89-.76-.16.32-.35.63-.48,1s-.14.55,0,.64c.35.3.14.73.28,1.09l.66.06a1.32,1.32,0,0,0,.79,1.61c.8.46.8.46.49,1.28.12.21.26.41.39.62l-.5.76a.85.85,0,0,0,.11.28,2.44,2.44,0,0,1,.93,1.71,27,27,0,0,1,4,4.52,11.07,11.07,0,0,1,1.11.77c.87.44,1.73.88,2.59,1.35l.78.27a22.88,22.88,0,0,0,4.08.88,45.18,45.18,0,0,0,5.11-.26,24.45,24.45,0,0,0,3.09-.54c1.11-.34,2.25-.74,3.45-1.23l1-.42a39,39,0,0,0,4-2.37A22.57,22.57,0,0,1,281,76.9a.36.36,0,0,0,0-.09,3.31,3.31,0,0,1,.74-1.12,2.21,2.21,0,0,0,.65-1l.11-.07.13.21c.89-2.13,1.5-2.45,2.09-2.64-.09-.4.41-.75.11-1.12a7.87,7.87,0,0,0,1.16-2.6,5,5,0,0,1,.25-.78c.5-1.2,1.55-2.13,1.84-3.45a15.45,15.45,0,0,1,.52-1.52,3.34,3.34,0,0,0,.77-2.25l.34-.12a12.56,12.56,0,0,1,.25-1.41,15.25,15.25,0,0,1,.66-1.46l1.32-.82c.21-.26.29-.45.42-.5.53-.22.54-.2.38-.92l-1.28.14c.13-.2.24-.34.33-.47-.08-.31-.14-.6-.21-.89a4.13,4.13,0,0,0,1-1.28,12.68,12.68,0,0,0,.49-2.87.65.65,0,0,0-.05-.33,3.77,3.77,0,0,1-.19-2.54,1.8,1.8,0,0,0,0-.51l-.69-.06a1.65,1.65,0,0,1,.39-1,4.14,4.14,0,0,0,.85-2.76,28.57,28.57,0,0,0-.66-3.13,2.06,2.06,0,0,1-.12-1.3.9.9,0,0,0-.06-.65c-.36-.65-.15-1.35-.37-2.09l1.32.38c0-.2,0-.34-.06-.46.23,0,.47-.05.66-.09l0-.69C293.36,34.61,293.05,34.45,293.13,34.09ZM279.54,20.55v-.37l.56.12Zm-11.12,38c-.11,1-1,1.33-2.18.7a3.76,3.76,0,0,1-2.33,0l.73-.43,2-1.25h1.8Zm15-.16-1.21.09a1.42,1.42,0,0,1,0,.46c0,.12-.06.23-.08.35l0,.26-.06,0c-.07.19-.15.38-.23.55a1.49,1.49,0,0,1-.46.84c-.16.24-.31.46-.47.67a.33.33,0,0,1-.27.39h0a4.27,4.27,0,0,1-2,1.09,2.79,2.79,0,0,1-.37.14c-.17.06-.35.13-.52.21a1.48,1.48,0,0,1-.85.12l0,0a1.32,1.32,0,0,1-1.59-.78,1.37,1.37,0,0,1,.54-1.67,2.3,2.3,0,0,1,.82-1.49c0-.13.08-.25.13-.37a3.4,3.4,0,0,1,2.19-1.93c.06,0,.13,0,.2,0l.19-.15a3.31,3.31,0,0,1,.33-.32,1.42,1.42,0,0,1,.72-.31l-.07-.07c.86-.31,1.12-1.11,1.5-1.77.48-.06.46.4.68.56l.7.08a2.51,2.51,0,0,1-.48,2.17,1.08,1.08,0,0,0,1.16.39Zm-2.63-6h0l0,0,0,0-.14-.5.94,0v-.49h0l.45,0a1.27,1.27,0,0,1-.14.39c-.34.38-.7.74-1.06,1.12h0C280.82,52.72,280.79,52.55,280.77,52.37Zm5.59-3.49a.55.55,0,0,1-.17-.13.7.7,0,0,0,.16.13,1.15,1.15,0,0,0,.53-.77A1.13,1.13,0,0,1,286.36,48.88Zm3.3-8c-.37.57-.45,1.28-1,1.71a.4.4,0,0,0-.11.3c0,.5.07,1,.13,1.56l-.56.31a1.87,1.87,0,0,1-.48,2.1l-.35.7.34-.7c-.12-.15-.36-.32-.34-.43.11-.46-.27-.74-.3-1.16L285.55,45c.26.24.45.49.17.84,0,.41-.08.82-.12,1.28-.12.17-.27.39-.41.61h0l-1.82-.33q-.06.41-.12.84c-.71.42-.72.45-.41,1.34-.21.13-.6-.11-.66.36l.49.07-.05.11c-.71,0-.85.64-1.12,1.12v.08h0v-.08c-.17-.13-.3-.13-.35.1h0c-.42-.1-.38.28-.52.47l-.5,0c-.07.17-.13.32-.18.47l-.48.12c0,.16,0,.3,0,.43l.32-.21c.06.14.12.28.19.42l-.18,0,.19.09-.23.35c-.41.19-.81.35-1.24,0-.1-.11-.39-.06-.58-.07-.21-.34-.44-.68-.67-1-.2,0-.35.07-.48.11l-1.35-1.64c-.14.21-.22.33-.28.44.08.29.14.58.24,1l-.54.29a1.13,1.13,0,0,1-1.23.84h-.05l-.16.21a.61.61,0,0,0-.15.12,2.85,2.85,0,0,1-1.71,1.51,3.35,3.35,0,0,1-.6.12.71.71,0,0,1-.12.18,1.69,1.69,0,0,1-.94.57s0,.06-.05.1A.57.57,0,0,1,269,56a1.59,1.59,0,0,1-.4-.16,2.43,2.43,0,0,1-1.66-.08,17.15,17.15,0,0,1-2.51.83,9.82,9.82,0,0,1-4,.13,2.59,2.59,0,0,0-1.83.31,9.57,9.57,0,0,0-3.48.91c-.05,0-.1-.08-.16-.11A2.38,2.38,0,0,1,253,58s-.05,0-.09-.05l-.42,0c-.07.39-.13.77-.2,1.16l.4.1c.06.2.11.4.16.62a.5.5,0,0,1-.22,0,6.16,6.16,0,0,0-.73-.36,1.3,1.3,0,0,1-.73-2.1,4.74,4.74,0,0,1,.39-.41,1.66,1.66,0,0,1,.54-1.48,1.31,1.31,0,0,0,.32-1.52c-.05-.12,0-.31.07-.5l.46.09c0-.4,0-.78,0-1.16h-.09c.06-.24.13-.49.18-.75s0-.32.12-.39c.55-.43.54-1.05.62-1.64l.82-1.12-.15-.23a.85.85,0,0,1,.26-.07c.53.1.42.53.42.88,0,.81,0,.81.55,1.32l1.95,0,0,.12L259,51c.11-.13.2-.27.35-.48a2.35,2.35,0,0,1,.58.46,3.09,3.09,0,0,0,1.5,1.1,4.65,4.65,0,0,0,1.84.39c.19,0,.46,0,.57-.11.35-.39.89-.41,1.29-.68.18-.12.49-.26.5-.41.05-.5.67-.23.74-.64l1,0a2.75,2.75,0,0,1,2.91-.59l.58-1c.06-.38.14-1,.24-1.59l.28,0,.14-.14h0l0-.07,0,0c.18.5.45.84,1,.8l1.26,1.32c0,.79.64,1.32,1.3,1.86l-.47-1c.13-.26.28-.54.45-.89-.37-.22-.71-.4-1-.59l.08-.06a4.85,4.85,0,0,0-.86-1,1.53,1.53,0,0,1-.63-1.66c-1,0-1.34-.81-1.85-1.42a6.14,6.14,0,0,0-.5-.52l-.4-.49-.67.21c-.14-.49-.26-1-.41-1.5l.37-.61c-.3-.67-.46-.78-1.23-.82l.4-.4a1.47,1.47,0,0,0-1-1.47c0-.2.08-.39.14-.61l-.37-.4c0-.14,0-.27.06-.35-.31-.33-.6-.62-.89-.95.14-.37.28-.71.43-1.1l-.5-.32c.73-.08,1.14-.65,1.83-.8l-.32.54c.31.35.62-.05,1,0,.12.13.25.29.39.42a1.62,1.62,0,0,0,.2-.08c.7-.71.7-.71,1.62-.36a6.23,6.23,0,0,0,.9.19,17.59,17.59,0,0,0,3.48.09c.35,0,.68,0,.8.39a2.22,2.22,0,0,1,.77-.09,1.26,1.26,0,0,0,1.17-.18,1.27,1.27,0,0,1,.73-.05,4.22,4.22,0,0,0,1.73-.1v.19l-.4.16c.37.33.74.62,1.16,1,.56.1,1.23-.31,1.89.15a1.52,1.52,0,0,1,.06-.2c-.18-.23-.34-.47-.51-.7l-.47,0c.17-.39.3-.68.47-1-.25-.18-.6-.31-.74-.57a1.79,1.79,0,0,1-.07-1c-.26-.5-.5-1.06-1.19-1.14.11.35.27.7-.05,1.09-.45,0-.94.13-1.44.15s-.8-.3-.62-.93c0-.08,0-.16,0-.3l-.45-.17c0,.14,0,.25,0,.35l-1,.43a8.94,8.94,0,0,1-2.3-.68,6.85,6.85,0,0,0-3-.51,2,2,0,0,0-1.45.28,1.14,1.14,0,0,1-.62.22,1.48,1.48,0,0,0-1,.42,2.27,2.27,0,0,1-1.91.63c-.15-.59-.3-1.22-.43-1.8.48-.6.9-1,1.63-.89a.59.59,0,0,0,.4-.07c1-.69,2.24-.46,3.18-1.09a6.24,6.24,0,0,1,1.58-.57,4.21,4.21,0,0,1,1.9-.09,3.28,3.28,0,0,0,.6,0l2.13.58c.42-.62,1,.22,1.55-.15,0,.27,0,.46.07.72.23,0,.43-.1.69-.14,0-.23-.06-.4-.08-.56l.13-.06c.08.18.26.37.24.54,0,.39.17.55.54.59-.06.22-.11.38-.15.54l.35.14.6-1.31a4.08,4.08,0,0,1,.74,1.72A.74.74,0,0,0,282,32c.43-.26.82-.48,1.21-.69l.16-.15,1-.47c.13.74.23,1.39.34,2.06l1,.26-.52.68c0,.17,0,.35.07.64l-.51-.21-.85.87c.23.21.43.39.61.59a.71.71,0,0,1,.06.34V36c0,.19-.08.38-.11.5l-.89.58c.58.39,1,.78,1.66.65.24,0,.55.19.86.31-.31,1-1.17.29-1.68.65a1,1,0,0,0,.85.95c.6.16.82.51.86,1.27l-.78-.16c-.06.1-.08.17-.14.29l1,.58c.13-.36.27-.73.71-.77l.36-.32-.49-.28c.25-.1.45-.16.78-.27l0-2.43.17,0c.07.23.15.44.22.67l.4-.05c-.13.25-.24.48-.4.78l.74.67,1.21.08C289.84,40.12,289.75,40.51,289.66,40.89ZM259,68.18l0,0h0Z"/></g></g></g></svg>